<svg width="71" height="24" viewBox="0 0 71 24" fill="none" xmlns="http://www.w3.org/2000/svg">
<path d="M15.8704 18.733C14.9905 18.733 14.1636 18.5662 13.3898 18.2326C12.6159 17.899 11.9427 17.4466 11.3703 16.8755C10.7978 16.3044 10.3447 15.6323 10.011 14.8592C9.67726 14.0862 9.51019 13.2606 9.50977 12.3826C9.50977 11.5253 9.68744 10.6919 10.0428 9.88243C10.3981 9.07297 10.8911 8.36109 11.5216 7.74679C12.1522 7.1325 12.9021 6.6668 13.7714 6.34971C14.6407 6.03261 15.5948 5.93735 16.6337 6.06394C16.7927 6.08511 16.9146 6.15136 16.9994 6.26271C17.0842 6.37405 17.1319 6.52477 17.1425 6.71485C17.1637 7.39223 17.4156 7.97181 17.8982 8.45359C18.3807 8.93538 18.9557 9.18664 19.6232 9.20738C19.8458 9.21797 20.0154 9.28147 20.132 9.3979C20.2487 9.51432 20.3123 9.69425 20.3229 9.93768C20.3441 10.3822 20.4793 10.7474 20.7287 11.0331C20.978 11.3189 21.3251 11.5359 21.7699 11.684C21.9183 11.737 22.0324 11.8138 22.1121 11.9146C22.1918 12.0153 22.2315 12.1396 22.2311 12.2873C22.2523 13.1658 22.0985 13.9966 21.7699 14.7799C21.4413 15.5631 20.9907 16.2485 20.4183 16.8361C19.8458 17.4237 19.1673 17.8867 18.3829 18.2249C17.5984 18.5632 16.7609 18.7326 15.8704 18.733ZM14.9163 11.1125C15.1813 11.1125 15.4067 11.02 15.5924 10.835C15.7782 10.65 15.8708 10.425 15.8704 10.1599C15.87 9.89492 15.7773 9.67012 15.5924 9.48553C15.4076 9.30095 15.1822 9.20823 14.9163 9.20738C14.6504 9.20654 14.4253 9.29925 14.2408 9.48553C14.0564 9.67181 13.9635 9.89661 13.9622 10.1599C13.9609 10.4233 14.0538 10.6483 14.2408 10.835C14.4278 11.0217 14.653 11.1142 14.9163 11.1125ZM13.6442 14.2877C13.9092 14.2877 14.1346 14.1952 14.3203 14.0102C14.5061 13.8252 14.5987 13.6002 14.5983 13.3351C14.5979 13.0701 14.5052 12.8453 14.3203 12.6607C14.1354 12.4761 13.9101 12.3834 13.6442 12.3826C13.3783 12.3817 13.1531 12.4745 12.9687 12.6607C12.7842 12.847 12.6914 13.0718 12.6901 13.3351C12.6888 13.5985 12.7817 13.8235 12.9687 14.0102C13.1557 14.1969 13.3809 14.2894 13.6442 14.2877ZM17.7786 14.9227C17.9588 14.9227 18.11 14.8618 18.2321 14.7398C18.3542 14.6179 18.4151 14.4672 18.4147 14.2877C18.4142 14.1082 18.3532 13.9575 18.2315 13.8356C18.1098 13.7136 17.9588 13.6527 17.7786 13.6527C17.5984 13.6527 17.4474 13.7136 17.3257 13.8356C17.204 13.9575 17.143 14.1082 17.1425 14.2877C17.1421 14.4672 17.2032 14.6181 17.3257 14.7405C17.4483 14.8628 17.5992 14.9236 17.7786 14.9227Z" fill="#32E389"/>
<path d="M28.0011 5.42076C31.433 5.42076 34.2511 8.21094 34.2511 11.6708C34.2511 15.1027 31.433 17.9208 28.0011 17.9208C24.5413 17.9208 21.7511 15.1027 21.7511 11.6708C21.7511 8.21094 24.5413 5.42076 28.0011 5.42076ZM28.0011 16.1071C30.4565 16.1071 32.4654 14.0982 32.4654 11.6429C32.4654 9.2154 30.4565 7.20647 28.0011 7.20647C25.5179 7.20647 23.5368 9.1875 23.5368 11.6429C23.5368 14.1261 25.5179 16.1071 28.0011 16.1071ZM43.048 16.4978C43.327 16.9163 43.2154 17.4743 42.8248 17.7533C42.6574 17.865 42.49 17.9208 42.3225 17.9208C42.0156 17.9208 41.7366 17.7812 41.5692 17.5301L37.8583 12.1451L36.0725 13.9587V17C36.0725 17.5022 35.654 17.8929 35.1797 17.8929C34.6775 17.8929 34.2868 17.5022 34.2868 17V6.28571C34.2868 5.81138 34.6775 5.42076 35.1797 5.42076C35.654 5.42076 36.0725 5.81138 36.0725 6.31362V11.4196L41.6808 5.67188C42.0156 5.30915 42.5737 5.30915 42.9364 5.67188C43.2712 6.0067 43.2991 6.56473 42.9364 6.92746L39.1138 10.8337L43.048 16.4978ZM52.1797 17C52.1797 17.5022 51.7612 17.8929 51.2868 17.8929H44.144C43.6417 17.8929 43.2511 17.5022 43.2511 17V6.28571C43.2511 5.81138 43.6417 5.42076 44.144 5.42076H51.2868C51.7612 5.42076 52.1797 5.81138 52.1797 6.31362C52.1797 6.78795 51.7612 7.20647 51.2868 7.20647H45.0368V10.7779H49.5011C49.9754 10.7779 50.394 11.1685 50.394 11.6429C50.394 12.1451 49.9754 12.5636 49.5011 12.5636H45.0368V16.135H51.2868C51.7612 16.1071 52.1797 16.5257 52.1797 17ZM61.144 17C61.144 17.5022 60.7254 17.8929 60.2511 17.8929H53.1083C52.606 17.8929 52.2154 17.5022 52.2154 17V6.28571C52.2154 5.81138 52.606 5.42076 53.1083 5.42076H60.2511C60.7254 5.42076 61.144 5.81138 61.144 6.31362C61.144 6.78795 60.7254 7.20647 60.2511 7.20647H54.0011V10.7779H58.4654C58.9397 10.7779 59.3583 11.1685 59.3583 11.6429C59.3583 12.1451 58.9397 12.5636 58.4654 12.5636H54.0011V16.135H60.2511C60.7254 16.1071 61.144 16.5257 61.144 17ZM65.644 5.42076C68.0993 5.42076 70.1083 7.45759 70.1083 9.88504C70.1083 12.3404 68.0993 14.3493 65.644 14.3493H62.9654V17.0279C62.9654 17.5022 62.5469 17.9208 62.0725 17.9208C61.5703 17.9208 61.1797 17.5022 61.1797 17.0279V6.31362C61.1797 5.81138 61.5703 5.42076 62.0725 5.42076H65.644ZM65.644 12.5357C67.0949 12.5357 68.3225 11.3359 68.3225 9.88504C68.3225 8.40625 67.0949 7.20647 65.644 7.20647H62.9654V12.5357H65.644Z" fill="#202020"/>
<path d="M9.96429 12.5446C10.5781 12.5446 10.8292 13.1027 10.8292 13.4375C10.8292 14.0792 8.95982 15.9208 6.22545 15.9208C2.4029 15.9208 0.114955 12.6283 0.114955 9.67076C0.114955 6.76897 2.3471 3.42076 6.22545 3.42076C9.01562 3.42076 10.8292 5.29018 10.8292 5.90402C10.8292 6.23884 10.5502 6.79688 9.93638 6.79688C9.04353 6.79688 8.6529 5.20647 6.22545 5.20647C3.49107 5.20647 1.90067 7.57813 1.90067 9.67076C1.90067 11.7355 3.46317 14.135 6.22545 14.135C8.6808 14.1071 9.07143 12.5446 9.96429 12.5446Z" fill="#202020"/>
</svg>
