<svg width="92" height="123" viewBox="0 0 92 123" fill="none" xmlns="http://www.w3.org/2000/svg">
<path d="M20.5493 12.0419C23.9556 11.1546 27.5748 11.6569 30.6107 13.4381C33.6467 15.2193 35.8508 18.1335 36.738 21.5398C35.8508 18.1335 36.353 14.5143 38.1342 11.4784C39.9154 8.44239 42.8297 6.23835 46.2359 5.35109C49.6422 4.46383 53.2614 4.96605 56.2974 6.74725C59.3333 8.52846 61.5374 11.4427 62.4246 14.849L63.0937 17.4177L11.7205 30.7993L11.0514 28.2306C10.1641 24.8243 10.6663 21.2051 12.4476 18.1692C14.2288 15.1332 17.143 12.9291 20.5493 12.0419ZM37.4071 24.1085C46.2634 21.8016 55.6733 23.1074 63.5668 27.7385C71.4604 32.3696 77.1909 39.9468 79.4977 48.803C81.8046 57.6593 80.4989 67.0693 75.8677 74.9628C71.2366 82.8563 63.6594 88.5868 54.8032 90.8937C45.9469 93.2006 36.537 91.8948 28.6434 87.2637C20.7499 82.6325 15.0194 75.0554 12.7125 66.1991C10.4057 57.3429 11.7114 47.9329 16.3425 40.0394C20.9737 32.1459 28.5508 26.4153 37.4071 24.1085Z" fill="#C3CBE0"/>
<path d="M13.1561 96.7531C11.4154 95.5145 10.5281 94.0213 10.0219 92.127C9.51564 90.2327 10.1821 88.6262 11.2069 87.186C11.7421 86.4338 12.5175 85.8429 13.4101 85.3786C18.1315 82.9231 23.9662 86.8575 23.7755 92.1758C23.7309 93.4179 23.4635 94.5743 22.8337 95.4594C21.8089 96.8996 20.5095 98.0557 18.554 98.1982C16.5984 98.3407 14.8969 97.9918 13.1561 96.7531Z" fill="#C3CBE0"/>
<path d="M55.7137 107.441C55.7137 115.107 49.4994 114.254 41.8338 114.254C34.1681 114.254 26.4258 115.68 26.4258 108.014C26.4258 100.348 37.4151 96.6172 45.0808 96.6172C52.7465 96.6172 55.7137 99.7754 55.7137 107.441Z" fill="#C3CBE0"/>
<path d="M60.6616 101.053C59.5483 108.638 65.8206 108.697 73.405 109.81C80.9894 110.923 88.4426 113.458 89.5558 105.874C90.6691 98.2894 80.3381 93.0017 72.7537 91.8885C65.1693 90.7752 61.7748 93.4691 60.6616 101.053Z" fill="#C3CBE0"/>
<g clip-path="url(#clip0_1521_42816)">
<circle cx="33.94" cy="45.6662" r="6.97856" transform="rotate(-1.23604 33.94 45.6662)" fill="#DEE3EE"/>
<circle cx="31.9939" cy="45.703" r="4.91925" transform="rotate(-1.23604 31.9939 45.703)" fill="#8F9BBA" stroke="#8F9BBA" stroke-width="0.208371"/>
</g>
<g clip-path="url(#clip1_1521_42816)">
<circle cx="50.9243" cy="40.5764" r="6.97856" transform="rotate(-1.23604 50.9243 40.5764)" fill="#DEE3EE"/>
<circle cx="48.9783" cy="40.617" r="4.91925" transform="rotate(-1.23604 48.9783 40.617)" fill="#8F9BBA" stroke="#8F9BBA" stroke-width="0.208371"/>
</g>
<line x1="40.7453" y1="54.4422" x2="50.4708" y2="54.4422" stroke="#8F9BBA" stroke-width="1.61568" stroke-linecap="round"/>
<defs>
<clipPath id="clip0_1521_42816">
<rect width="13.9571" height="13.9571" fill="white" transform="translate(26.8125 38.8398) rotate(-1.23604)"/>
</clipPath>
<clipPath id="clip1_1521_42816">
<rect width="13.9571" height="13.9571" fill="white" transform="translate(43.7969 33.75) rotate(-1.23604)"/>
</clipPath>
</defs>
</svg>
