<svg width="22" height="22" viewBox="0 0 22 22" fill="none" xmlns="http://www.w3.org/2000/svg">
<path d="M12.0083 15.6237C11.2139 15.6286 10.437 15.5434 9.67756 15.3682C8.91815 15.193 8.26467 14.8313 7.71711 14.2829C7.27793 13.8445 6.93978 13.3434 6.70267 12.7796C6.46474 12.2157 6.34578 11.625 6.34578 11.0073C6.34578 10.7409 6.36411 10.4875 6.40078 10.2471C6.43663 10.0059 6.50059 9.7623 6.59267 9.51622C6.64319 9.3663 6.6383 9.22004 6.578 9.07744C6.5177 8.93485 6.42237 8.83585 6.292 8.78044C6.15756 8.72585 6.02026 8.72993 5.88011 8.79267C5.73996 8.85541 5.64463 8.96215 5.59411 9.11289C5.49226 9.41844 5.412 9.72807 5.35333 10.0418C5.29467 10.3547 5.26533 10.6741 5.26533 11C5.26533 11.7676 5.41118 12.4997 5.70289 13.1963C5.99541 13.893 6.41096 14.5106 6.94956 15.0492C7.57859 15.6978 8.33148 16.1358 9.20822 16.3631C10.085 16.5913 10.9751 16.7074 11.8788 16.7114L10.7018 17.8897C10.5967 17.9948 10.54 18.1186 10.5319 18.2612C10.5237 18.4038 10.5804 18.5354 10.7018 18.656C10.8232 18.7766 10.9507 18.8369 11.0843 18.8369C11.218 18.8369 11.3459 18.7766 11.4681 18.656L13.3296 16.7946C13.5267 16.5966 13.6253 16.366 13.6253 16.1028C13.6253 15.8396 13.5267 15.6094 13.3296 15.4122L11.4681 13.5508C11.3622 13.4449 11.2383 13.3882 11.0966 13.3809C10.954 13.3727 10.8224 13.4294 10.7018 13.5508C10.5812 13.6722 10.5209 13.7997 10.5209 13.9333C10.5209 14.067 10.5812 14.1949 10.7018 14.3171L12.0083 15.6237ZM10.0088 6.37022C10.8032 6.37022 11.581 6.45741 12.342 6.63178C13.1039 6.80615 13.759 7.16752 14.3073 7.71589C14.7457 8.15507 15.0839 8.65659 15.3218 9.22044C15.5597 9.7843 15.6783 10.375 15.6774 10.9927C15.6774 11.2591 15.6595 11.5125 15.6237 11.7529C15.5878 11.9933 15.5234 12.2365 15.4306 12.4826C15.3809 12.6333 15.3861 12.7812 15.4464 12.9262C15.5067 13.0713 15.6017 13.1711 15.7312 13.2257C15.8665 13.2803 16.0042 13.2803 16.1443 13.2257C16.2845 13.1711 16.3794 13.0684 16.4291 12.9177C16.531 12.6121 16.6116 12.2976 16.6711 11.9741C16.7298 11.6506 16.7591 11.3259 16.7591 11C16.7591 10.2324 16.6153 9.50033 16.3277 8.80367C16.04 8.107 15.6245 7.48693 15.081 6.94344C14.4471 6.29404 13.6917 5.8573 12.815 5.63322C11.9391 5.40833 11.0489 5.29589 10.1444 5.29589L11.33 4.11033C11.4294 4.00522 11.4832 3.88137 11.4913 3.73878C11.4995 3.59619 11.4433 3.46459 11.3227 3.344C11.2021 3.22341 11.0741 3.16352 10.9389 3.16433C10.8036 3.16515 10.6761 3.22504 10.5563 3.344L8.69489 5.20667C8.49689 5.40467 8.39789 5.63526 8.39789 5.89844C8.39789 6.16163 8.49689 6.39181 8.69489 6.589L10.5563 8.45044C10.6614 8.55637 10.7853 8.613 10.9279 8.62033C11.0705 8.62767 11.2021 8.57144 11.3227 8.45167C11.4433 8.33189 11.5036 8.20396 11.5036 8.06789C11.5036 7.93181 11.4433 7.8043 11.3227 7.68533L10.0088 6.37022ZM11 22C9.48118 22 8.05282 21.7107 6.71489 21.1322C5.37696 20.5529 4.213 19.7682 3.223 18.7782C2.23219 17.7874 1.44752 16.623 0.869 15.2851C0.289667 13.9472 0 12.5188 0 11C0 9.48118 0.289259 8.05282 0.867778 6.71489C1.4463 5.37696 2.23137 4.213 3.223 3.223C4.21463 2.233 5.37859 1.44793 6.71489 0.867778C8.05363 0.289259 9.482 0 11 0C12.518 0 13.9464 0.289259 15.2851 0.867778C16.623 1.44711 17.787 2.23219 18.777 3.223C19.7678 4.213 20.5525 5.37696 21.131 6.71489C21.7103 8.05363 22 9.482 22 11C22 12.518 21.7107 13.9464 21.1322 15.2851C20.5529 16.623 19.7682 17.787 18.7782 18.777C17.7874 19.7678 16.623 20.5525 15.2851 21.131C13.9472 21.7103 12.5188 22 11 22Z" fill="white"/>
</svg>
