<svg width="100" height="88" viewBox="0 0 100 88" fill="none" xmlns="http://www.w3.org/2000/svg">
<path d="M49.3261 16.0846C50.5636 18.8971 48.7636 28.3471 48.7636 28.3471C48.7636 28.3471 40.3261 23.3971 39.0886 20.5846C37.8511 17.7721 39.0886 14.5097 41.9011 13.2722C44.7136 12.0347 48.0886 13.2722 49.3261 16.0846Z" fill="#83BF4F"/>
<path d="M51.4641 28.9055H48.5391C48.5391 24.068 51.2391 15.8555 62.0391 15.8555V18.7805C52.2516 18.7805 51.4641 28.0055 51.4641 28.9055Z" fill="#947151"/>
<path d="M50.0017 28.2909C42.2342 20.4202 19.1445 20.1011 19.1445 42.6496C19.1445 56.902 35.9564 77.4297 43.2982 77.4297C46.5968 77.4297 47.7672 75.3025 49.7889 75.3025C51.7041 75.3025 52.3426 77.4297 56.5987 77.4297C63.9406 77.4297 80.8588 57.0084 80.8588 42.6496C80.8588 20.1011 57.7692 20.4202 50.0017 28.2909Z" fill="#EF4D3C"/>
</svg>
