<svg width="5" height="9" viewBox="0 0 5 9" fill="none" xmlns="http://www.w3.org/2000/svg">
<path d="M0.134367 0.758817C0.0914454 0.71588 0.0578909 0.665372 0.0356188 0.610176C0.0133462 0.554981 0.00279188 0.496179 0.00455904 0.437128C0.0063262 0.378076 0.02038 0.319932 0.0459175 0.266015C0.071455 0.212098 0.107976 0.163464 0.153396 0.12289C0.198816 0.0823156 0.252246 0.0505956 0.310634 0.029541C0.369022 0.00848638 0.431224 -0.00149058 0.493691 0.000179895C0.556158 0.00185037 0.617665 0.0151355 0.6747 0.0392768C0.731736 0.063418 0.783183 0.0979426 0.826104 0.140879L4.86996 4.1885C4.95347 4.27201 5 4.38256 5 4.49747C5 4.61239 4.95347 4.72294 4.86996 4.80644L0.826104 8.85452C0.783466 8.89839 0.73203 8.93382 0.674785 8.95875C0.61754 8.98368 0.555626 8.9976 0.49264 8.99972C0.429654 9.00183 0.36685 8.9921 0.307878 8.97107C0.248906 8.95005 0.194941 8.91816 0.149116 8.87725C0.103292 8.83635 0.0665221 8.78724 0.0409431 8.73279C0.0153637 8.67834 0.00148487 8.61962 0.00011301 8.56006C-0.00125933 8.50049 0.009902 8.44126 0.032949 8.38581C0.0559959 8.33035 0.0904694 8.27978 0.134367 8.23703L3.86994 4.49747L0.134367 0.758817Z" fill="#C3C3C3"/>
</svg>
