<svg width="100" height="88" viewBox="0 0 100 88" fill="none" xmlns="http://www.w3.org/2000/svg">
<path d="M41.6421 24.4956C39.5774 23.2983 37.1216 22.9702 34.8149 23.5834C32.5083 24.1966 30.5397 25.701 29.3421 27.7656C27.3381 31.2216 28.2881 31.4836 25.1501 36.8936C21.9961 42.3316 21.3301 41.5776 19.3081 45.0656C18.1108 47.1304 17.7827 49.5862 18.3959 51.8928C19.0091 54.1995 20.5135 56.1681 22.5781 57.3656C35.7241 64.9936 55.4161 32.4856 41.6421 24.4956Z" fill="#CA694D"/>
<path d="M44.7587 27.5039C48.2127 39.4419 32.5367 61.3259 21.5007 54.9239C20.2214 54.1704 19.1509 53.1089 18.3867 51.8359C18.6827 52.9901 19.2058 54.0737 19.9256 55.0232C20.6454 55.9727 21.5474 56.7692 22.5787 57.3659C34.4247 64.2379 51.6167 38.5099 44.7587 27.5039Z" fill="#AE3D2F"/>
<path d="M25.6533 42.4977C24.2734 41.6977 25.0973 40.9697 26.8813 37.8977C28.6633 34.8237 28.8854 33.7477 30.2653 34.5477C32.5413 35.8677 27.9293 43.8197 25.6533 42.4977Z" fill="#F6CFB2"/>
<path d="M73.0948 59.9139C72.8203 58.7644 72.3221 57.6801 71.6286 56.723C70.9351 55.766 70.0599 54.9549 69.0529 54.3361C68.046 53.7173 66.927 53.3028 65.7599 53.1165C64.5927 52.9301 63.4004 52.9755 62.2508 53.2499C58.3648 54.1779 58.8308 55.0479 52.7448 56.4999C46.6308 57.9599 46.7188 56.9579 42.7968 57.8939C41.6472 58.1684 40.5629 58.6666 39.6058 59.3601C38.6488 60.0536 37.8377 60.9288 37.2189 61.9358C36.6001 62.9427 36.1857 64.0617 35.9993 65.2288C35.8129 66.396 35.8583 67.5884 36.1328 68.7379C39.6628 83.524 76.7928 75.4019 73.0948 59.9139Z" fill="#CA694D"/>
<path d="M36.75 70.4233C42.218 81.9213 71.704 75.8673 73.268 63.1133C68.338 72.8773 45.288 77.4013 36.75 70.4233Z" fill="#AE3D2F"/>
<path d="M49.0333 60.7232C48.6633 59.1712 49.7573 59.2692 53.2133 58.4432C56.6693 57.6172 57.6013 57.0372 57.9733 58.5892C58.5833 61.1492 49.6433 63.2832 49.0333 60.7232Z" fill="#F6CFB2"/>
<path d="M72.8998 46.9632C73.9584 46.4375 74.9031 45.7085 75.68 44.8177C76.4568 43.9269 77.0506 42.8919 77.4274 41.7716C77.8043 40.6514 77.9567 39.4679 77.8762 38.2887C77.7956 37.1095 77.4835 35.9577 76.9578 34.8992C75.1798 31.3212 74.4378 31.9692 71.6558 26.3672C68.8598 20.7372 69.8558 20.5972 68.0638 16.9872C67.5383 15.9284 66.8094 14.9835 65.9187 14.2064C65.0281 13.4294 63.993 12.8354 62.8728 12.4584C61.7525 12.0814 60.5689 11.9287 59.3897 12.0091C58.2104 12.0896 57.0585 12.4015 55.9998 12.9272C42.3838 19.6892 58.6378 54.0452 72.8998 46.9632Z" fill="#CA694D"/>
<path d="M73.7614 44.3053C62.4034 49.9453 49.6154 29.1573 52.0474 17.0312C46.7234 28.3313 60.6254 53.0573 72.8994 46.9633C74.1933 46.3196 75.3128 45.3731 76.1627 44.2042C77.0127 43.0354 77.5679 41.6786 77.7814 40.2493C76.9233 42.0061 75.5105 43.4315 73.7614 44.3053Z" fill="#AE3D2F"/>
<path d="M66.7046 23.6961C68.1346 22.9861 68.2846 24.0761 69.8646 27.2581C71.4446 30.4401 72.2206 31.2181 70.7926 31.9281C68.4346 33.0981 64.3466 24.8661 66.7046 23.6961Z" fill="#F6CFB2"/>
</svg>
