<svg width="14" height="14" viewBox="0 0 14 14" fill="none" xmlns="http://www.w3.org/2000/svg">
<path d="M0 2.55045C0 1.65779 -7.82311e-08 1.21146 0.254333 0.870341C0.478034 0.570418 0.834975 0.326572 1.274 0.173749C1.77333 -3.91155e-08 2.42667 0 3.73333 0H10.2667C11.5733 0 12.2267 -3.91155e-08 12.726 0.173749C13.165 0.326572 13.522 0.570418 13.7457 0.870341C14 1.21146 14 1.65779 14 2.55045V13.1547C14 13.5421 14 13.7358 13.8822 13.8418C13.8313 13.8879 13.7663 13.9259 13.6917 13.9531C13.6172 13.9804 13.5349 13.9962 13.4505 13.9996C13.2557 14.0076 13.02 13.9 12.5487 13.6856L7 11.1582L1.45133 13.6848C0.98 13.9 0.744333 14.0076 0.548333 13.9996C0.464142 13.9961 0.382056 13.9802 0.307735 13.953C0.233413 13.9257 0.168624 13.8878 0.117833 13.8418C-2.08616e-07 13.7358 0 13.5421 0 13.1547V2.55045Z" fill="white"/>
</svg>
