<svg width="31" height="31" viewBox="0 0 31 31" fill="none" xmlns="http://www.w3.org/2000/svg">
<path d="M7.75 10.5737C7.75 9.58541 7.75 9.09126 8.03158 8.71359C8.27925 8.38153 8.67444 8.11156 9.1605 7.94237C9.71333 7.75 10.4367 7.75 11.8833 7.75H19.1167C20.5633 7.75 21.2867 7.75 21.8395 7.94237C22.3256 8.11156 22.7207 8.38153 22.9684 8.71359C23.25 9.09126 23.25 9.58541 23.25 10.5737V22.3142C23.25 22.743 23.25 22.9575 23.1195 23.0748C23.0632 23.1259 22.9912 23.1679 22.9087 23.1981C22.8262 23.2283 22.7351 23.2458 22.6416 23.2495C22.4259 23.2584 22.165 23.1392 21.6432 22.9019L15.5 20.1037L9.35683 22.901C8.835 23.1392 8.57408 23.2584 8.35708 23.2495C8.26387 23.2457 8.17299 23.2281 8.09071 23.1979C8.00842 23.1678 7.93669 23.1258 7.88046 23.0748C7.75 22.9575 7.75 22.743 7.75 22.3142V10.5737Z" fill="#EBEBEB" stroke="#C3C3C3" stroke-width="1.5" stroke-linecap="round" stroke-linejoin="round"/>
</svg>
