<svg width="48" height="48" viewBox="0 0 48 48" fill="none" xmlns="http://www.w3.org/2000/svg">
<g clip-path="url(#clip0_2282_45147)">
<path opacity="0.5" d="M24 48C37.2548 48 48 37.2548 48 24C48 10.7452 37.2548 0 24 0C10.7452 0 0 10.7452 0 24C0 37.2548 10.7452 48 24 48Z" fill="#96E8BE"/>
<path d="M16.0772 17.9581C15.63 12.9326 11.7868 8.24961 9.91898 6.53748L8.89062 5.64524C13.1944 1.99134 18.642 -0.00849949 24.2682 2.71536e-05C29.563 2.71536e-05 34.4561 1.73627 38.4165 4.6686C38.9761 6.38314 37.9095 9.96415 36.7902 11.6763C36.3837 12.296 35.4653 13.0677 34.4561 13.7984C32.1841 15.4454 29.3143 16.258 27.8555 19.2917C27.4908 20.0554 27.4201 20.9284 27.657 21.7417C27.8005 22.2722 27.8961 22.8485 27.8961 23.4104C27.9009 25.2311 26.0738 26.5453 24.2682 26.526C19.5712 26.4754 16.4957 22.658 16.0772 17.9581ZM27.7048 39.2488C30.0676 34.7587 37.943 34.7587 37.943 34.7587C46.1507 34.6719 47.2604 29.6464 48.0017 27.1072C47.3479 32.3669 44.9945 37.2631 41.3051 41.0394C37.6158 44.8157 32.7959 47.2619 27.59 48C26.8175 46.3602 25.904 42.6707 27.7048 39.2488Z" fill="#1FC16F"/>
</g>
<defs>
<clipPath id="clip0_2282_45147">
<rect width="48" height="48" fill="white"/>
</clipPath>
</defs>
</svg>
