<svg width="37" height="37" viewBox="0 0 37 37" fill="none" xmlns="http://www.w3.org/2000/svg">
<path d="M18.5512 27.153C18.2444 27.153 17.9989 26.9075 17.9989 26.6007V24.2615L15.0166 23.3693L12.918 21.5774L17.9989 23.0992V22.7605C17.9989 21.5332 18.3426 20.3182 19.0298 19.2873C19.2352 18.9764 19.405 18.6491 19.5392 18.3055L16.8195 17.4918L13.6531 15.3796L19.8313 17.2316C19.8779 16.9469 19.9012 16.6585 19.9012 16.3664V13.7891H21.0058V16.3664C21.0058 16.5087 21.0009 16.6503 20.9911 16.791L25.7541 15.3674L22.0698 17.6317L20.7922 18.0122C20.618 18.671 20.3374 19.297 19.9614 19.8654C19.3968 20.7245 19.1023 21.7308 19.1023 22.7617V23.9792L24.1709 22.4598L21.0586 24.556L19.1035 25.1414V26.6019C19.1035 26.9087 18.858 27.153 18.5512 27.153Z" fill="#44911B"/>
<path d="M20.2754 6.08842C18.027 8.70254 17.9607 13.0128 20.1306 15.7214C20.2312 15.8417 20.3969 15.8552 20.4963 15.7337C22.7447 13.1195 22.811 8.81054 20.6411 6.10192C20.5405 5.96815 20.3748 5.96692 20.2754 6.08842ZM11.9888 17.6912L7.69325 16.4025C6.96916 18.8203 8.34372 21.3608 10.7492 22.0971L15.0447 23.3858C15.7811 20.968 14.4065 18.4153 11.9888 17.6912ZM28.4098 17.5807L24.1143 18.8694C21.6966 19.6057 20.322 22.1462 21.0584 24.564L25.3539 23.2753C27.7594 22.539 29.1339 19.9985 28.4098 17.5807ZM13.7929 11.8125L9.49736 10.5238C8.78554 12.9416 10.1478 15.4821 12.5656 16.2184L16.8611 17.5071C17.2083 16.3451 17.0802 15.0928 16.505 14.0251C15.9297 12.9574 14.9543 12.1616 13.7929 11.8125ZM29.4162 10.6588L25.1207 11.9475C24.5449 12.1188 24.0087 12.4024 23.543 12.7819C23.0773 13.1614 22.6913 13.6293 22.4072 14.1586C22.1232 14.6879 21.9467 15.2683 21.8879 15.8661C21.8291 16.464 21.8892 17.0676 22.0648 17.6421L26.3603 16.3534C28.7657 15.6171 30.1403 13.0766 29.4162 10.6588Z" fill="#86D72F"/>
<path d="M18.556 26.75C17.0483 26.75 15.6023 27.2948 14.5362 28.2645C13.47 29.2343 12.8711 30.5496 12.8711 31.921H24.2473C24.2473 29.0652 21.702 26.75 18.556 26.75Z" fill="#916E60"/>
</svg>
