<svg width="100" height="88" viewBox="0 0 100 88" fill="none" xmlns="http://www.w3.org/2000/svg">
<path d="M66.3285 14.5828C56.8785 10.1278 45.5835 13.0078 39.4185 21.4228L27.6285 37.4878C18.741 49.5928 23.1285 66.8053 36.7185 73.1953C48.711 78.8428 62.976 73.6228 68.5335 61.6078L76.881 43.5178C81.8985 32.6278 77.196 19.7128 66.3285 14.5828Z" fill="#F3AD61"/>
<path d="M62.0773 22.7281C62.0773 23.5636 61.7455 24.3648 61.1547 24.9555C60.564 25.5463 59.7628 25.8781 58.9273 25.8781C58.0919 25.8781 57.2907 25.5463 56.7 24.9555C56.1092 24.3648 55.7773 23.5636 55.7773 22.7281C55.7773 21.8927 56.1092 21.0915 56.7 20.5007C57.2907 19.91 58.0919 19.5781 58.9273 19.5781C59.7628 19.5781 60.564 19.91 61.1547 20.5007C61.7455 21.0915 62.0773 21.8927 62.0773 22.7281ZM55.6198 42.4831C56.7119 42.4831 57.7592 42.0493 58.5314 41.2771C59.3035 40.505 59.7373 39.4577 59.7373 38.3656C59.7373 37.2736 59.3035 36.2263 58.5314 35.4541C57.7592 34.6819 56.7119 34.2481 55.6198 34.2481C54.5278 34.2481 53.4805 34.6819 52.7083 35.4541C51.9362 36.2263 51.5023 37.2736 51.5023 38.3656C51.5023 39.4577 51.9362 40.505 52.7083 41.2771C53.4805 42.0493 54.5278 42.4831 55.6198 42.4831ZM36.4948 54.5431C37.4974 54.5431 38.4588 54.1449 39.1677 53.436C39.8766 52.7271 40.2748 51.7656 40.2748 50.7631C40.2748 49.7606 39.8766 48.7991 39.1677 48.0903C38.4588 47.3814 37.4974 46.9831 36.4948 46.9831C35.4923 46.9831 34.5309 47.3814 33.822 48.0903C33.1131 48.7991 32.7148 49.7606 32.7148 50.7631C32.7148 51.7656 33.1131 52.7271 33.822 53.436C34.5309 54.1449 35.4923 54.5431 36.4948 54.5431ZM42.0523 61.7206C42.0523 62.4128 41.7774 63.0767 41.2879 63.5662C40.7984 64.0556 40.1346 64.3306 39.4423 64.3306C38.7501 64.3306 38.0863 64.0556 37.5968 63.5662C37.1073 63.0767 36.8323 62.4128 36.8323 61.7206C36.8323 61.0284 37.1073 60.3645 37.5968 59.8751C38.0863 59.3856 38.7501 59.1106 39.4423 59.1106C40.1346 59.1106 40.7984 59.3856 41.2879 59.8751C41.7774 60.3645 42.0523 61.0284 42.0523 61.7206ZM69.1198 43.5856C69.8121 43.5856 70.4759 43.3106 70.9654 42.8212C71.4549 42.3317 71.7298 41.6678 71.7298 40.9756C71.7298 40.2834 71.4549 39.6195 70.9654 39.1301C70.4759 38.6406 69.8121 38.3656 69.1198 38.3656C68.4276 38.3656 67.7638 38.6406 67.2743 39.1301C66.7848 39.6195 66.5098 40.2834 66.5098 40.9756C66.5098 41.6678 66.7848 42.3317 67.2743 42.8212C67.7638 43.3106 68.4276 43.5856 69.1198 43.5856Z" fill="#DF9C54"/>
</svg>
