<svg width="37" height="37" viewBox="0 0 37 37" fill="none" xmlns="http://www.w3.org/2000/svg">
<path d="M23.8435 12.1661C22.0361 12.1661 20.4338 13.0321 19.3999 14.3712V13.9944H19.392C19.3065 12.5346 18.6756 11.1631 17.6281 10.16C16.5807 9.15699 15.1958 8.59814 13.7565 8.59766H7.75C7.75 11.7651 10.2757 14.3311 13.3934 14.3311H17.4898V24.3227H19.3999V17.9076H24.2066C27.3243 17.9076 29.85 15.3415 29.85 12.1741H23.8435V12.1661Z" fill="#86D72F"/>
<path d="M18.798 23.0117C16.6501 23.0117 14.5901 23.702 13.0713 24.9308C11.5525 26.1595 10.6992 27.8261 10.6992 29.5638H26.9059C26.9059 25.9452 23.2799 23.0117 18.798 23.0117Z" fill="#916E60"/>
</svg>
