<svg width="37" height="37" viewBox="0 0 37 37" fill="none" xmlns="http://www.w3.org/2000/svg">
<path fill-rule="evenodd" clip-rule="evenodd" d="M22.4547 21.3101C23.2908 21.1399 24.1346 21.092 24.985 21.1675C25.1415 21.1835 25.2967 21.2002 25.4508 21.2163C25.5404 21.2302 25.63 21.246 25.7194 21.2642C25.7247 21.2675 25.7288 21.2723 25.7301 21.2788C25.873 22.1315 25.8957 22.988 25.7985 23.8472C25.7378 24.3753 25.6216 24.8906 25.4508 25.3931C25.2834 25.8615 25.0617 26.3012 24.7848 26.7115C24.6607 26.8801 24.5303 27.0445 24.3942 27.2036C24.2616 27.3396 24.1253 27.4719 23.986 27.6011C23.7504 27.7944 23.502 27.9703 23.2409 28.1284C23.0026 28.2611 22.757 28.3804 22.5055 28.4859C22.3804 28.5358 22.2538 28.5825 22.1256 28.6255C21.3703 28.8531 20.5974 28.974 19.8082 28.9898C19.4836 28.9975 19.1587 28.9915 18.8346 28.9702C18.5844 28.9524 18.3342 28.9311 18.0846 28.9068C18.0694 28.7668 18.0579 28.6264 18.0495 28.4859C18.0377 28.3187 18.0279 28.1513 18.0211 27.9839C17.9959 27.3768 18.0214 26.772 18.0973 26.1695C18.1552 25.7476 18.2449 25.3297 18.3659 24.9214C18.536 24.3836 18.7784 23.8823 19.0914 23.4165C19.1694 23.3166 19.2449 23.2146 19.319 23.1118C19.5188 22.8732 19.7383 22.6531 19.9762 22.4507C19.9812 22.4491 19.9859 22.4465 19.9909 22.4449C20.0809 22.3686 20.1745 22.296 20.2702 22.2271C20.6239 21.9826 21.0021 21.7795 21.4049 21.6187C21.7465 21.4898 22.0978 21.387 22.4547 21.3101ZM23.9811 22.8872C23.7838 22.8948 23.5855 22.9076 23.3873 22.9253C23.2615 22.9406 23.1365 22.9606 23.0123 22.9859C21.8668 23.2197 20.9987 23.8379 20.4088 24.8394C19.9981 25.5868 19.7764 26.387 19.7428 27.2398C19.7469 27.243 19.7501 27.2419 19.7526 27.2368C20.09 26.5546 20.4945 25.9174 20.9664 25.3257C21.0646 25.2124 21.1611 25.0974 21.2555 24.981C21.4404 24.7826 21.6292 24.5878 21.8209 24.396C21.9036 24.3253 21.9845 24.2518 22.0641 24.1773C22.4869 23.8027 22.945 23.4765 23.4381 23.1988C23.6484 23.0767 23.8691 22.9739 24.0973 22.8902C24.0586 22.8876 24.0198 22.8864 23.9811 22.8872Z" fill="#916E60"/>
<path fill-rule="evenodd" clip-rule="evenodd" d="M24.5133 8.44681C25.3494 8.27662 26.1932 8.22869 27.0436 8.30423C27.2001 8.32018 27.3553 8.33695 27.5094 8.35306C27.599 8.36693 27.6887 8.38273 27.778 8.40091C27.7834 8.4043 27.7874 8.40979 27.7887 8.41653C27.9315 9.26905 27.9543 10.1249 27.8571 10.9839C27.7964 11.512 27.6802 12.0273 27.5094 12.5298C27.342 12.9982 27.1203 13.438 26.8434 13.8482C26.7193 14.0168 26.5888 14.1813 26.4528 14.3404C26.3202 14.4763 26.1838 14.6087 26.0446 14.7378C25.809 14.9311 25.5606 15.107 25.2995 15.2652C25.0612 15.3978 24.8155 15.5171 24.5641 15.6226C24.439 15.6725 24.3124 15.7192 24.1842 15.7622C23.4288 15.9898 22.656 16.1117 21.8668 16.1275C21.5423 16.1352 21.2181 16.1282 20.8942 16.107C20.6438 16.0891 20.393 16.0678 20.1432 16.0435C20.128 15.9035 20.1165 15.7631 20.108 15.6226C20.0962 15.4555 20.0865 15.288 20.0797 15.1206C20.0545 14.5136 20.08 13.9087 20.1559 13.3062C20.2138 12.8844 20.3035 12.4673 20.4245 12.0591C20.5946 11.5212 20.8369 11.0191 21.15 10.5533C21.228 10.4533 21.3035 10.3514 21.3776 10.2486C21.5774 10.0099 21.7969 9.7898 22.0348 9.58743C22.0397 9.58582 22.0446 9.58416 22.0495 9.58255C22.1395 9.50629 22.233 9.43281 22.3288 9.3638C22.6826 9.11926 23.0616 8.91625 23.4645 8.7554C23.8059 8.6266 24.1566 8.52372 24.5133 8.44681ZM26.0397 10.024C25.8424 10.0316 25.6441 10.0443 25.4459 10.062C25.3201 10.0773 25.1951 10.0974 25.0709 10.1226C23.9254 10.3564 23.0573 10.9746 22.4674 11.9761C22.0567 12.7235 21.835 13.5237 21.8014 14.3765C21.8055 14.3797 21.8087 14.3786 21.8112 14.3736C22.1486 13.6913 22.5531 13.0541 23.025 12.4624C23.1232 12.3491 23.2197 12.2342 23.3141 12.1177C23.499 11.9193 23.6878 11.7245 23.8795 11.5327C23.9622 11.462 24.0431 11.3885 24.1227 11.314C24.5455 10.9394 25.0036 10.6132 25.4967 10.3355C25.707 10.2135 25.9277 10.1106 26.1559 10.0269C26.1172 10.0244 26.0784 10.0231 26.0397 10.024Z" fill="#916E60"/>
<path fill-rule="evenodd" clip-rule="evenodd" d="M12.0305 13.5828C11.1944 13.4126 10.3506 13.3656 9.50018 13.4412C9.34357 13.4571 9.18762 13.4729 9.03339 13.489C8.94385 13.5029 8.85411 13.5187 8.76483 13.5369C8.75939 13.5403 8.75633 13.5458 8.75507 13.5525C8.61223 14.405 8.58952 15.2608 8.68671 16.1199C8.74739 16.6481 8.86254 17.1641 9.03339 17.6668C9.20084 18.1352 9.42343 18.5748 9.70038 18.9851C9.82441 19.1537 9.95499 19.3173 10.091 19.4763C10.2237 19.6124 10.3599 19.7455 10.4992 19.8748C10.7347 20.0679 10.9833 20.243 11.2443 20.4011C11.4826 20.5337 11.7282 20.6531 11.9797 20.7585C12.1048 20.8085 12.2314 20.8552 12.3596 20.8982C13.1148 21.1257 13.8869 21.2476 14.676 21.2634C15.0007 21.2711 15.3255 21.2642 15.6496 21.2429C15.8998 21.225 16.15 21.2038 16.3996 21.1794C16.4148 21.0396 16.4273 20.899 16.4357 20.7585C16.4475 20.5917 16.4563 20.4247 16.4631 20.2576C16.4883 19.6503 16.4638 19.0449 16.3879 18.4421C16.33 18.0202 16.2393 17.6034 16.1183 17.1951C15.9482 16.6572 15.7069 16.155 15.3937 15.6892C15.3158 15.5893 15.2393 15.4883 15.1652 15.3855C14.9654 15.1468 14.7468 14.9258 14.509 14.7234C14.5041 14.7218 14.4992 14.7201 14.4943 14.7185C14.4043 14.6423 14.3107 14.5697 14.215 14.5007C13.8611 14.2561 13.4824 14.0532 13.0793 13.8923C12.7378 13.7635 12.3873 13.6597 12.0305 13.5828ZM10.5041 15.1599C10.7012 15.1675 10.8988 15.1803 11.0969 15.198C11.2227 15.2133 11.3486 15.2343 11.4728 15.2595C12.6181 15.4934 13.4856 16.1108 14.0754 17.1121C14.4862 17.8595 14.7087 18.6596 14.7424 19.5125C14.7382 19.516 14.7351 19.5147 14.7326 19.5095C14.3951 18.8272 13.9897 18.1901 13.5178 17.5984C13.4197 17.4852 13.3231 17.37 13.2287 17.2537C13.044 17.0554 12.8559 16.8603 12.6642 16.6687C12.5816 16.5979 12.4997 16.5254 12.4201 16.4509C11.9974 16.0765 11.54 15.7501 11.0471 15.4724C10.8369 15.3504 10.616 15.2466 10.3879 15.1628C10.4266 15.1603 10.4653 15.1591 10.5041 15.1599Z" fill="#916E60"/>
</svg>
