<svg width="100" height="88" viewBox="0 0 100 88" fill="none" xmlns="http://www.w3.org/2000/svg">
<path d="M71.9878 33.7495C62.5482 24.31 36.8445 9.08765 30.5272 31.0273C24.2098 52.9669 11.4634 62.0916 22.3859 73.0141C33.3084 83.9366 102.46 64.2213 71.9878 33.7495Z" fill="#F22E2E"/>
<path d="M42.0191 28.9895C42.0191 28.9895 42.0086 29.0169 41.9867 29.0639C41.9637 29.1083 41.934 29.1825 41.8886 29.2601C41.8439 29.3394 41.7919 29.4405 41.7258 29.5429C41.6544 29.6568 41.5788 29.7681 41.4992 29.8764C41.4088 29.9994 41.3136 30.1186 41.2137 30.234C41.1061 30.3585 40.9939 30.4788 40.8771 30.5948C40.632 30.8354 40.3679 31.0559 40.0874 31.254C39.816 31.4481 39.5271 31.6166 39.2246 31.7573C38.9365 31.8905 38.6538 31.9853 38.4007 32.0437C38.2841 32.0703 38.1664 32.0915 38.0479 32.1073C37.9402 32.1205 37.8446 32.1282 37.7637 32.1301C37.6027 32.1356 37.5028 32.1216 37.5028 32.1216C36.8041 32.0248 36.3161 31.3797 36.413 30.6808C36.4385 30.5027 36.5005 30.3318 36.5953 30.1789C36.5953 30.1789 36.6488 30.0933 36.7561 29.9734C36.8095 29.9126 36.8767 29.8441 36.956 29.77C37.0441 29.6893 37.1359 29.6126 37.2311 29.5403C37.4382 29.3836 37.6923 29.2275 37.9795 29.0921C38.2663 28.9561 38.586 28.8403 38.9189 28.7532C39.251 28.6652 39.5896 28.6041 39.9314 28.5704C40.0953 28.5554 40.2596 28.5465 40.4242 28.5438C40.5767 28.5412 40.7293 28.5446 40.8816 28.5542C41.026 28.5633 41.1609 28.5773 41.2828 28.5942C41.4037 28.6093 41.5146 28.6343 41.6042 28.6509C41.6929 28.6657 41.7689 28.6908 41.8176 28.7015C41.8676 28.715 41.8954 28.7244 41.8954 28.7244C41.9464 28.742 41.9883 28.779 42.0119 28.8275C42.0355 28.8759 42.0389 28.9317 42.0214 28.9826L42.0191 28.9895ZM63.4583 43.0527C63.4583 43.0527 63.4384 43.0713 63.4063 43.1061C63.3769 43.1408 63.3239 43.1921 63.2749 43.2566C63.224 43.3213 63.1569 43.3999 63.095 43.4895C62.9478 43.6968 62.8181 43.916 62.7074 44.1449C62.6463 44.2706 62.5884 44.4029 62.5359 44.5394C62.4316 44.8159 62.3529 45.1013 62.301 45.3922C62.2483 45.6817 62.2276 45.97 62.2383 46.2393C62.2485 46.5086 62.2906 46.759 62.352 46.9726C62.3835 47.0794 62.4174 47.1771 62.4532 47.2637C62.4898 47.3501 62.5259 47.4253 62.5604 47.4871C62.6279 47.6107 62.685 47.6807 62.685 47.6807C62.7615 47.7736 62.8497 47.8561 62.9473 47.9263C63.5541 48.3582 64.3961 48.2165 64.8279 47.6097C64.8279 47.6097 64.8803 47.5361 64.9394 47.4082C64.9698 47.3443 65.0008 47.2669 65.0316 47.1781C65.0617 47.0895 65.0889 46.9897 65.1133 46.881C65.1604 46.6637 65.1859 46.4112 65.1781 46.1417C65.1711 45.8723 65.1312 45.586 65.0595 45.3007C64.9885 45.0139 64.8911 44.7343 64.7687 44.4654C64.7084 44.3353 64.6426 44.2077 64.5715 44.0832C64.5051 43.9663 64.4335 43.8525 64.357 43.742C64.289 43.6433 64.217 43.5475 64.1412 43.4547C64.0735 43.3692 64.0014 43.2952 63.9463 43.2342C63.8933 43.1731 63.8368 43.1255 63.8053 43.0928C63.7709 43.0603 63.7499 43.043 63.7499 43.043C63.7084 43.0089 63.6559 42.9911 63.6022 42.9929C63.5486 42.9947 63.4974 43.0159 63.4583 43.0527ZM53.0979 44.1368C53.0979 44.1368 53.0724 44.1272 53.027 44.1137C52.983 44.1027 52.9136 44.0775 52.8342 44.062C52.7539 44.0448 52.6539 44.0193 52.5461 44.0032C52.2953 43.9623 52.0415 43.9425 51.7874 43.944C51.6442 43.9445 51.501 43.9511 51.3583 43.9638C51.0644 43.9918 50.7738 44.047 50.4902 44.1286C50.2076 44.2089 49.9399 44.3172 49.7032 44.4455C49.4663 44.5732 49.2605 44.7213 49.096 44.8705C49.0201 44.9397 48.9479 45.0128 48.8798 45.0896C48.8184 45.1605 48.7669 45.226 48.7268 45.2841C48.6457 45.3991 48.6082 45.4812 48.6082 45.4812C48.561 45.5861 48.5234 45.7047 48.5039 45.8237C48.3834 46.559 48.8817 47.2528 49.617 47.3733C49.617 47.3733 49.7061 47.3879 49.8467 47.3847C49.9293 47.383 50.0117 47.3768 50.0935 47.3661C50.1953 47.3523 50.2962 47.3331 50.3959 47.3086C50.6114 47.2552 50.8491 47.1668 51.0872 47.0412C51.3256 46.9162 51.5647 46.7543 51.7888 46.5643C52.0147 46.3743 52.2224 46.1638 52.4094 45.9354C52.4994 45.824 52.5847 45.7087 52.665 45.59C52.8078 45.3799 52.9328 45.1581 53.0386 44.9271C53.0853 44.8286 53.1199 44.7314 53.1504 44.6551C53.1818 44.5806 53.1996 44.5089 53.2149 44.4663C53.229 44.4211 53.2352 44.3945 53.2352 44.3945C53.2474 44.3422 53.2403 44.2873 53.215 44.2399C53.1897 44.1924 53.1481 44.1558 53.0979 44.1368ZM30.7369 50.0573C30.7369 50.0573 30.7115 50.0477 30.6661 50.0342C30.622 50.0231 30.5527 49.998 30.4733 49.9825C30.3929 49.9653 30.293 49.9397 30.1851 49.9237C29.9343 49.8828 29.6806 49.863 29.4265 49.8644C29.2832 49.865 29.14 49.8716 28.9973 49.8843C28.7035 49.9123 28.4129 49.9674 28.1292 50.0491C27.8466 50.1293 27.5789 50.2377 27.3423 50.366C27.1053 50.4937 26.8996 50.6418 26.735 50.791C26.6592 50.8602 26.587 50.9333 26.5189 51.0101C26.4575 51.081 26.406 51.1465 26.3658 51.2046C26.2847 51.3195 26.2473 51.4017 26.2473 51.4017C26.2 51.5066 26.1625 51.6252 26.143 51.7441C26.0225 52.4795 26.5208 53.1733 27.2561 53.2938C27.2561 53.2938 27.3452 53.3083 27.4858 53.3052C27.5683 53.3034 27.6507 53.2972 27.7326 53.2866C27.8343 53.2727 27.9352 53.2536 28.0349 53.2291C28.2505 53.1757 28.4882 53.0872 28.7262 52.9617C28.9647 52.8366 29.2038 52.6747 29.4279 52.4848C29.6537 52.2948 29.8615 52.0843 30.0484 51.8559C30.1385 51.7444 30.2238 51.6292 30.3041 51.5105C30.4469 51.3003 30.5719 51.0786 30.6777 50.8476C30.7244 50.7491 30.759 50.6519 30.7895 50.5756C30.8208 50.501 30.8387 50.4294 30.854 50.3868C30.8681 50.3416 30.8743 50.315 30.8743 50.315C30.8865 50.2627 30.8793 50.2077 30.8541 50.1603C30.8288 50.1129 30.7872 50.0763 30.7369 50.0573ZM38.5412 39.98C38.5412 39.98 38.5147 39.9769 38.4685 39.9748C38.4242 39.9747 38.3525 39.9672 38.2739 39.9714C38.1939 39.9741 38.0933 39.9734 37.988 39.9837C37.7429 40.0039 37.5 40.0451 37.262 40.1068C37.1285 40.1406 36.9968 40.1812 36.8674 40.2283C36.7333 40.2735 36.6036 40.3295 36.4749 40.3896C36.3469 40.4496 36.2219 40.5161 36.1007 40.5888C35.8589 40.7318 35.639 40.898 35.4535 41.0757C35.2677 41.253 35.1169 41.4423 35.0046 41.6227C34.9099 41.7733 34.8329 41.9345 34.7753 42.1029C34.7526 42.1661 34.7416 42.223 34.7314 42.2589C34.7223 42.296 34.7195 42.318 34.7195 42.318C34.7096 42.4043 34.7072 42.4912 34.7121 42.5778C34.7624 43.3452 35.4252 43.9264 36.1924 43.8761C36.1924 43.8761 36.2146 43.8747 36.252 43.8676C36.2885 43.8594 36.3458 43.8517 36.4104 43.8326C36.5817 43.7845 36.7469 43.7167 36.9027 43.6306C37.0891 43.5287 37.2867 43.3887 37.4741 43.2132C37.6619 43.038 37.8403 42.8279 37.9966 42.5946C38.076 42.4776 38.1494 42.3566 38.2165 42.2322C38.2837 42.107 38.3469 41.9807 38.3995 41.8495C38.4539 41.723 38.5018 41.5937 38.5431 41.4623C38.6178 41.2281 38.6726 40.988 38.7068 40.7446C38.7229 40.64 38.728 40.5396 38.7352 40.4598C38.7437 40.3816 38.7402 40.3095 38.7426 40.2653C38.7431 40.2191 38.7415 40.1924 38.7415 40.1924C38.7384 40.1391 38.7166 40.0886 38.6799 40.0498C38.6433 40.011 38.5942 39.9863 38.5412 39.98ZM53.7378 33.9854C53.7526 33.9627 53.7628 33.9373 53.7678 33.9107C53.7728 33.884 53.7725 33.8567 53.767 33.8301C53.7614 33.8036 53.7507 33.7784 53.7354 33.7561C53.7201 33.7337 53.7005 33.7146 53.6778 33.6997C53.6778 33.6997 53.6535 33.6839 53.6091 33.6592C53.5653 33.6373 53.4988 33.5952 53.4182 33.56C53.3371 33.5228 53.2376 33.4726 53.1266 33.4294C53.0048 33.3803 52.8811 33.3359 52.7559 33.2963C52.6141 33.2512 52.4706 33.212 52.3256 33.1787C52.1696 33.1427 52.0123 33.1127 51.854 33.0888C51.524 33.0412 51.1906 33.021 50.8572 33.0285C50.534 33.0338 50.212 33.0701 49.8957 33.1368C49.595 33.2008 49.321 33.2926 49.0914 33.3961C48.9767 33.4486 48.8727 33.5017 48.7816 33.5544C48.6907 33.6079 48.6122 33.6585 48.5487 33.7049C48.4213 33.7962 48.3522 33.8667 48.3522 33.8667C48.2344 33.9878 48.1411 34.1305 48.0773 34.2869C47.8107 34.9475 48.1302 35.6991 48.7907 35.9656C48.7907 35.9656 48.8822 36.0025 49.0356 36.0351C49.1124 36.0522 49.2046 36.0672 49.3093 36.0798C49.4139 36.0916 49.5305 36.0985 49.6566 36.1008C49.9085 36.1035 50.1963 36.078 50.4975 36.0162C50.8141 35.9507 51.1236 35.855 51.4219 35.7304C51.7303 35.6036 52.0277 35.4516 52.3112 35.276C52.4467 35.1907 52.5788 35.1002 52.7073 35.0047C52.8268 34.9162 52.9426 34.8228 53.0545 34.7248C53.1533 34.6383 53.2489 34.5481 53.3409 34.4543C53.4254 34.3704 53.4964 34.2845 53.5559 34.2179C53.6156 34.1533 53.6597 34.0882 53.6911 34.0504C53.7218 34.0099 53.7378 33.9858 53.7378 33.9858V33.9854ZM55.2431 52.9803C55.2431 52.9803 55.2227 52.9996 55.1894 53.0358C55.1591 53.072 55.1044 53.1252 55.0535 53.1928C55.0006 53.2604 54.9311 53.3425 54.8665 53.4367C54.7938 53.5393 54.7252 53.6448 54.6608 53.7528C54.5881 53.8746 54.5205 53.9994 54.4583 54.1269C54.3915 54.2636 54.3302 54.4028 54.2745 54.5443C54.1612 54.8385 54.0737 55.142 54.0129 55.4514C53.9525 55.7499 53.9225 56.0537 53.9236 56.3582C53.9252 56.6475 53.9594 56.9176 54.0141 57.149C54.0423 57.2647 54.0729 57.3707 54.1061 57.4648C54.14 57.5588 54.1735 57.6407 54.2062 57.7081C54.2696 57.8431 54.3246 57.9201 54.3246 57.9201C54.4105 58.0397 54.5155 58.1443 54.6354 58.2298C55.228 58.6498 56.0491 58.5097 56.4689 57.9168C56.4689 57.9168 56.5235 57.8396 56.5867 57.7045C56.6191 57.6369 56.6525 57.5549 56.686 57.4607C56.719 57.3667 56.7493 57.2605 56.7772 57.1447C56.8311 56.9131 56.8645 56.643 56.8653 56.3537C56.8667 56.0643 56.8359 55.7557 56.7732 55.4471C56.7115 55.1379 56.6231 54.8347 56.5089 54.5408C56.4528 54.3994 56.391 54.2603 56.3238 54.1239C56.2612 53.9966 56.1933 53.872 56.1202 53.7504C56.0555 53.6426 55.9866 53.5373 55.9136 53.4349C55.8486 53.341 55.779 53.2591 55.7258 53.1916C55.6747 53.1242 55.6199 53.0713 55.5894 53.0351C55.5561 52.999 55.5356 52.9796 55.5356 52.9796C55.4959 52.9426 55.4435 52.922 55.3892 52.9221C55.3349 52.9223 55.2827 52.943 55.2431 52.9803ZM51.8258 63.5825C51.8258 63.5825 51.8001 63.5939 51.7566 63.6168C51.7158 63.6408 51.6465 63.6725 51.5758 63.7191C51.5033 63.765 51.4104 63.8191 51.3179 63.8862C51.0994 64.0409 50.8934 64.2126 50.702 64.3999C50.5933 64.5062 50.4888 64.6169 50.3889 64.7316C50.1836 64.9708 49.9994 65.2275 49.8385 65.4986C49.6816 65.7595 49.5515 66.0358 49.4505 66.323C49.355 66.5962 49.2968 66.862 49.2707 67.0984C49.2589 67.2075 49.2525 67.3171 49.2516 67.4268C49.252 67.5266 49.2563 67.6151 49.2644 67.6896C49.279 67.8381 49.3049 67.9291 49.3049 67.9291C49.3458 68.0705 49.4096 68.2043 49.4939 68.325C49.9117 68.9192 50.732 69.0622 51.3262 68.6444C51.3262 68.6444 51.4037 68.59 51.5084 68.4838C51.5615 68.431 51.6205 68.3648 51.6837 68.2875C51.752 68.2017 51.816 68.1125 51.8754 68.0203C52.0039 67.8202 52.1257 67.5769 52.2235 67.3045C52.3256 67.0176 52.3983 66.7211 52.4405 66.4196C52.4867 66.1085 52.5039 65.7871 52.4951 65.4771C52.4896 65.325 52.478 65.1733 52.4604 65.0222C52.4294 64.7563 52.3774 64.4933 52.3048 64.2356C52.2751 64.1252 52.2369 64.0247 52.2094 63.9435C52.1838 63.8629 52.1499 63.7945 52.1333 63.7502C52.114 63.7051 52.1012 63.68 52.1012 63.68C52.0763 63.6318 52.0339 63.5949 51.9828 63.5768C51.9316 63.5587 51.8755 63.5607 51.8258 63.5825ZM67.3937 52.9886C67.3611 52.9476 67.3135 52.9211 67.2614 52.9152C67.2092 52.9092 67.1569 52.9242 67.1158 52.9569C67.1158 52.9569 67.092 52.9757 67.0525 53.0119C67.0152 53.0485 66.9533 53.101 66.8877 53.1699C66.711 53.3514 66.5472 53.5451 66.3974 53.7495C66.3026 53.8782 66.2127 54.0105 66.1281 54.1462C66.0363 54.2927 65.95 54.4426 65.8692 54.5955C65.7016 54.9169 65.5589 55.2507 65.4424 55.5939C65.327 55.9277 65.2412 56.2709 65.1859 56.6197C65.1337 56.9519 65.1174 57.2671 65.1283 57.5412C65.1346 57.6784 65.1452 57.805 65.1605 57.9181C65.1765 58.0314 65.1945 58.1307 65.2141 58.2134C65.2517 58.3783 65.2915 58.4756 65.2915 58.4756C65.3679 58.6594 65.4861 58.8227 65.6367 58.9528C66.1638 59.4042 66.9572 59.3428 67.4087 58.8157C67.4087 58.8157 67.477 58.7358 67.5643 58.5909C67.6089 58.5186 67.657 58.4298 67.7076 58.3273C67.7576 58.2246 67.8072 58.1077 67.8562 57.9794C67.9524 57.7224 68.0355 57.4179 68.0901 57.0861C68.1451 56.7544 68.1721 56.3956 68.1677 56.0316C68.1645 55.6691 68.1335 55.3074 68.075 54.9497C68.0461 54.7792 68.011 54.6098 67.9697 54.4418C67.9318 54.2865 67.8879 54.1328 67.8381 53.9809C67.7599 53.7399 67.6649 53.5047 67.554 53.2769C67.5133 53.191 67.4709 53.1218 67.4469 53.0753C67.4207 53.0285 67.404 53.0032 67.404 53.0032C67.4009 52.9981 67.3975 52.9932 67.3937 52.9886ZM45.8852 57.8393C45.8852 57.8393 45.8575 57.8443 45.8099 57.8566C45.7647 57.8704 45.6899 57.8852 45.6103 57.9142C45.5292 57.942 45.4262 57.973 45.3206 58.0168C45.0721 58.1165 44.832 58.2357 44.6024 58.3734C44.4755 58.4493 44.3473 58.5328 44.2208 58.6233C43.9655 58.8083 43.7268 59.0152 43.5073 59.2416C43.2941 59.4589 43.1035 59.6975 42.9386 59.9535C42.7824 60.1971 42.6639 60.4421 42.5837 60.666C42.5469 60.7694 42.5152 60.8745 42.4889 60.981C42.4661 61.0784 42.4497 61.1653 42.4403 61.2397C42.42 61.3874 42.4241 61.4821 42.4241 61.4821C42.4308 61.6236 42.4607 61.7721 42.516 61.911C42.7844 62.586 43.5492 62.9156 44.2242 62.6472C44.2242 62.6472 44.3122 62.6123 44.4386 62.5333C44.5025 62.4942 44.5753 62.4437 44.6546 62.3831C44.741 62.3155 44.824 62.2436 44.9032 62.1677C45.0746 62.0029 45.2497 61.7945 45.4079 61.5522C45.5739 61.2969 45.7134 61.0254 45.8244 60.7418C45.9411 60.4489 46.032 60.1465 46.0963 59.8378C46.1264 59.6887 46.1504 59.5384 46.1682 59.3874C46.1998 59.1215 46.2102 58.8536 46.1995 58.5861C46.196 58.4719 46.1822 58.3653 46.1744 58.2798C46.1683 58.1954 46.1511 58.1211 46.1452 58.0742C46.1368 58.0257 46.1302 57.9983 46.1302 57.9983C46.1174 57.9455 46.0849 57.8996 46.0394 57.8701C45.9938 57.8405 45.9386 57.8295 45.8852 57.8393ZM30.3322 60.8351C30.3331 60.8138 30.3298 60.7925 30.3225 60.7724C30.3152 60.7523 30.304 60.7339 30.2896 60.7182C30.2752 60.7024 30.2578 60.6897 30.2384 60.6807C30.219 60.6717 30.1981 60.6666 30.1768 60.6657L30.1151 60.663C30.0773 60.664 30.0165 60.6595 29.9491 60.6649C29.8806 60.6691 29.7947 60.6711 29.7039 60.6822C29.4912 60.7061 29.2807 60.7468 29.0744 60.804C28.9608 60.8358 28.8433 60.8719 28.728 60.9164C28.4912 61.0033 28.2628 61.1116 28.0456 61.2397C27.6089 61.4915 27.2477 61.828 27.0304 62.1406C26.9801 62.2124 26.9333 62.2867 26.8903 62.3631C26.8562 62.4244 26.8253 62.4875 26.7977 62.5521C26.7517 62.6628 26.7336 62.7353 26.7336 62.7353C26.6928 62.8992 26.6925 63.0705 26.7328 63.2345C26.7732 63.3985 26.8529 63.5502 26.9651 63.6764C27.0772 63.8026 27.2185 63.8996 27.3766 63.9589C27.5347 64.0182 27.7049 64.038 27.8724 64.0166C27.8724 64.0166 27.9466 64.0072 28.062 63.9745C28.1196 63.9581 28.1864 63.9345 28.2605 63.9048C28.3343 63.8745 28.4139 63.8364 28.4979 63.7918C28.8339 63.6125 29.2105 63.2933 29.5117 62.8892C29.6646 62.6886 29.7989 62.4745 29.9129 62.2495C29.9705 62.1402 30.0202 62.0278 30.0651 61.9186C30.1101 61.8095 30.1482 61.7016 30.1807 61.5988C30.213 61.4959 30.2394 61.3978 30.26 61.3078C30.2818 61.2191 30.2938 61.1339 30.306 61.0665C30.3193 61.0002 30.3218 60.9393 30.3272 60.9018L30.3318 60.8402L30.3322 60.8351ZM70.2734 43.2057C70.2734 43.2057 70.2654 43.2327 70.2548 43.2807C70.2467 43.3272 70.226 43.4006 70.2158 43.4847C70.2039 43.5697 70.1851 43.6755 70.1762 43.7894C70.1656 43.9045 70.1586 44.0312 70.1569 44.1661C70.155 44.3079 70.1592 44.4497 70.1693 44.5912C70.1795 44.7386 70.1961 44.8908 70.2195 45.0446C70.2684 45.351 70.3448 45.6634 70.4479 45.9606C70.5493 46.2587 70.6783 46.5408 70.8254 46.79C70.9719 47.0396 71.1368 47.256 71.3001 47.4289C71.3756 47.5085 71.455 47.5842 71.538 47.6559C71.6145 47.7202 71.6846 47.7743 71.7466 47.8164C71.8692 47.9013 71.9554 47.9404 71.9554 47.9404C72.0847 47.9985 72.2305 48.039 72.3795 48.0527C73.103 48.1189 73.743 47.5861 73.8091 46.8626C73.8091 46.8626 73.8177 46.7683 73.8045 46.6197C73.797 46.5323 73.7849 46.4452 73.7683 46.359C73.7471 46.2514 73.7205 46.1449 73.6887 46.04C73.6192 45.8125 73.5127 45.5621 73.3684 45.3113C73.2245 45.0602 73.0431 44.8086 72.8343 44.5731C72.6259 44.3365 72.3973 44.1185 72.1511 43.9214C72.0317 43.8271 71.9086 43.7377 71.7819 43.6535C71.6639 43.5747 71.5427 43.501 71.4186 43.4324C71.3085 43.3715 71.196 43.315 71.0815 43.2629C70.9781 43.2142 70.8769 43.1784 70.797 43.1466C70.7189 43.1138 70.645 43.0956 70.6005 43.0795C70.5759 43.0717 70.5512 43.0648 70.5262 43.0587C70.4732 43.0465 70.4177 43.0549 70.3707 43.0823C70.3238 43.1096 70.289 43.1537 70.2734 43.2057ZM41.1802 52.8748C41.1802 52.8748 41.1521 52.8735 41.103 52.8746C41.0558 52.8778 40.9796 52.8751 40.8956 52.8852C40.8102 52.8938 40.7028 52.9007 40.5901 52.9191C40.3254 52.9596 40.0644 53.021 39.8094 53.1028C39.6646 53.1492 39.5217 53.2015 39.381 53.2593C39.0903 53.3814 38.8107 53.5285 38.5455 53.6989C38.2801 53.8682 38.0367 54.0605 37.8295 54.2626C37.6219 54.4642 37.4508 54.676 37.3217 54.8755C37.2623 54.9678 37.2076 55.063 37.1577 55.1607C37.1134 55.2502 37.0776 55.3313 37.0514 55.4014C36.998 55.5406 36.9805 55.6337 36.9805 55.6337C36.9537 55.7784 36.9509 55.9266 36.9723 56.0723C37.08 56.7907 37.7496 57.2858 38.468 57.1781C38.468 57.1781 38.5617 57.164 38.7028 57.116C38.786 57.0878 38.8676 57.0554 38.9474 57.0188C39.0469 56.9724 39.144 56.9213 39.2385 56.8656C39.4429 56.7441 39.6609 56.5811 39.8702 56.3813C40.0799 56.1818 40.2811 55.9459 40.4604 55.6869C40.6406 55.4283 40.7981 55.1545 40.9309 54.8686C40.9942 54.7303 41.0517 54.5894 41.1034 54.4464C41.154 54.3078 41.1963 54.171 41.2317 54.0409C41.2669 53.9106 41.295 53.7867 41.3163 53.6733C41.3391 53.5613 41.3498 53.4544 41.3617 53.3693C41.375 53.2858 41.3751 53.2095 41.3801 53.1625C41.383 53.1134 41.3827 53.0853 41.3827 53.0853C41.3821 53.0311 41.3608 52.9791 41.3232 52.94C41.2856 52.9009 41.2344 52.8776 41.1802 52.8748ZM37.2503 67.4467C37.262 67.4052 37.2568 67.3608 37.2357 67.3232C37.2146 67.2856 37.1795 67.2579 37.138 67.2461L37.0785 67.2294C37.0415 67.2217 36.9833 67.2034 36.9165 67.1931C36.8489 67.1815 36.7647 67.1636 36.674 67.1538C36.5741 67.1416 36.4739 67.1332 36.3734 67.1287C36.2601 67.1236 36.1466 67.1233 36.0333 67.1278C35.9154 67.1326 35.7929 67.1408 35.6705 67.1577C35.42 67.1878 35.1729 67.2408 34.9321 67.3159C34.4494 67.4607 34.0206 67.7053 33.7373 67.9597C33.6666 68.0234 33.6036 68.0851 33.5499 68.1441C33.4965 68.2036 33.4516 68.2583 33.4164 68.3067C33.3461 68.4039 33.312 68.4704 33.312 68.4704C33.2535 68.5851 33.2163 68.7094 33.2022 68.8374C33.1734 69.1113 33.2546 69.3854 33.4279 69.5995C33.6013 69.8135 33.8525 69.95 34.1264 69.9788C34.1264 69.9788 34.2007 69.9866 34.3205 69.9813C34.3906 69.9775 34.4605 69.97 34.5298 69.9589C34.6163 69.9446 34.7021 69.9261 34.7868 69.9033C35.155 69.806 35.5947 69.5817 35.9805 69.2575C36.1754 69.0974 36.3553 68.9198 36.5178 68.7269C36.597 68.6349 36.6718 68.5391 36.7418 68.4399C36.8077 68.3476 36.8697 68.2526 36.9276 68.1551C36.9827 68.0623 37.0309 67.973 37.0715 67.8901C37.113 67.8087 37.1443 67.7286 37.1716 67.6657C37.1997 67.6042 37.2163 67.5455 37.2301 67.5103L37.2487 67.4514L37.2503 67.4467Z" fill="#FD7C7C"/>
<path d="M67.6066 24.3222C68.0418 17.3385 62.6626 13.1728 60.7208 11.9042C60.3987 11.6937 59.9699 11.9012 59.9357 12.2845C59.8459 13.2912 59.7841 15.2248 60.191 17.927C60.3045 18.6811 59.9255 18.8861 59.3525 18.3828C56.9675 16.2873 51.1517 11.9152 46.5587 14.4324C46.2857 14.582 46.2013 14.9329 46.3858 15.1838C47.1105 16.1689 49.3579 18.6908 55.4035 22.3947C56.516 23.0762 56.3663 23.5002 55.0726 23.3319C51.6092 22.8812 45.5585 22.5672 41.5287 24.9978C41.1634 25.2183 41.2121 25.7626 41.612 25.9115C44.8678 27.1237 55.8961 31.0833 60.2475 30.782C62.4003 30.6329 59.8308 37.8385 58.8334 40.4437C58.6838 40.8346 59.0425 41.2297 59.4451 41.1157C61.9922 40.394 68.6545 38.0816 68.695 33.6265C68.699 33.1739 69.2319 32.939 69.5569 33.2539L80.7844 44.1295L80.7845 44.1296C80.7863 44.1218 82.9137 34.9578 73.9052 30.4772C71.7234 29.3921 78.9798 29.4148 81.368 29.4501C81.7471 29.4557 82 29.0578 81.8319 28.718C79.8292 24.6696 70.5428 24.7672 68.1318 24.8631C67.8308 24.8753 67.5878 24.6229 67.6066 24.3222Z" fill="#30AD44"/>
</svg>
