<svg width="100" height="88" viewBox="0 0 100 88" fill="none" xmlns="http://www.w3.org/2000/svg">
<path d="M83.7515 43.5507C84.6515 60.8757 69.014 75.5007 50.114 75.5007C31.214 75.5007 14.4515 59.9757 16.364 42.7632C19.064 18.5757 36.9515 17.0007 50.114 17.0007C58.1015 17.0007 81.7265 10.0257 83.7515 43.5507Z" fill="#EF4D3C"/>
<path d="M26.375 38.3754C33.35 27.5754 45.275 30.7254 48.425 26.6754C48.425 34.4379 54.05 30.6129 56.8625 34.1004C60.4625 38.6004 61.8125 46.5879 66.0875 48.1629C61.925 39.2754 68.675 39.6129 59.225 27.6879C64.2875 30.8379 66.875 27.6879 73.7375 30.5004C67.775 21.0504 58.4375 23.7504 58.4375 23.7504C58.4375 23.7504 64.2875 18.3504 69.2375 21.1629C64.0625 13.5129 49.1 23.1879 49.1 23.1879C49.1 23.1879 42.9125 12.6129 29.6375 23.7504C37.4 20.6004 45.95 23.7504 45.95 23.7504C45.95 23.7504 31.8875 20.2629 26.375 38.3754Z" fill="#8CC63E"/>
<path d="M26.375 38.3759C26.375 38.3759 34.5875 23.1884 48.7625 24.5384C36.275 18.8009 26.375 30.9509 26.375 38.3759Z" fill="#64892F"/>
<path d="M29.6367 23.7489C29.6367 23.7489 39.9867 15.9864 49.0992 23.7489C46.3992 14.2989 32.5617 18.6864 29.6367 23.7489ZM51.3492 24.7614C65.0742 31.0614 60.4617 38.2614 66.0867 48.3864C62.2617 39.9489 71.7117 24.7614 51.3492 24.7614Z" fill="#64892F"/>
<path d="M45.9492 23.7491C45.9492 23.7491 49.0992 19.0241 50.2242 13.1741C50.3367 12.3866 53.7117 12.4991 53.5992 13.2866C52.4742 20.8241 55.5117 24.9866 55.5117 24.9866C55.5117 24.9866 53.1492 25.7741 50.2242 25.7741C47.2992 25.8866 45.9492 23.7491 45.9492 23.7491Z" fill="#64892F"/>
<path d="M51.9141 13.85C52.846 13.85 53.6016 13.5478 53.6016 13.175C53.6016 12.8022 52.846 12.5 51.9141 12.5C50.9821 12.5 50.2266 12.8022 50.2266 13.175C50.2266 13.5478 50.9821 13.85 51.9141 13.85Z" fill="#8CC63E"/>
</svg>
