<svg width="36" height="37" viewBox="0 0 36 37" fill="none" xmlns="http://www.w3.org/2000/svg">
<path d="M20 27H15V34H20V27Z" fill="#916E60"/>
<path d="M27.8087 18.6797C28.2052 17.8345 28.4348 16.8781 28.4348 15.8661C28.4348 12.6299 26.1496 9.97197 23.2174 9.60498V9.5605C23.2174 6.4911 20.88 4 18 4C15.12 4 12.7826 6.4911 12.7826 9.5605V9.60498C11.8401 9.72321 10.9383 10.0817 10.1533 10.65C9.36831 11.2183 8.72334 11.9798 8.27294 12.87C7.82255 13.7602 7.57998 14.753 7.56577 15.7642C7.55156 16.7755 7.76612 17.7755 8.1913 18.6797C6.87652 19.7251 6 21.3821 6 23.2616C6 26.4199 8.42087 29 11.3843 29H24.6157C27.5791 29 30 26.4199 30 23.2616C30 21.3821 29.1235 19.7251 27.8087 18.6797Z" fill="#66C74D"/>
<g clip-path="url(#clip0_2880_38405)">
<path d="M14.1766 10.9269C14.3107 11.2316 14.1157 12.2553 14.1157 12.2553C14.1157 12.2553 13.2016 11.7191 13.0675 11.4144C12.9335 11.1097 13.0675 10.7563 13.3722 10.6222C13.6769 10.4882 14.0425 10.6222 14.1766 10.9269Z" fill="#83BF4F"/>
<path d="M14.4106 12.3161H14.0938C14.0938 11.792 14.3862 10.9023 15.5562 10.9023V11.2192C14.4959 11.2192 14.4106 12.2186 14.4106 12.3161Z" fill="#947151"/>
<path d="M14.2491 12.2493C13.4076 11.3966 10.9062 11.3621 10.9062 13.8048C10.9062 15.3488 12.7275 17.5727 13.5229 17.5727C13.8802 17.5727 14.007 17.3422 14.2261 17.3422C14.4335 17.3422 14.5027 17.5727 14.9638 17.5727C15.7592 17.5727 17.592 15.3603 17.592 13.8048C17.592 11.3621 15.0906 11.3966 14.2491 12.2493Z" fill="#EF4D3C"/>
</g>
<g clip-path="url(#clip1_2880_38405)">
<path d="M22.8797 14.5246C23.0138 14.8293 22.8188 15.853 22.8188 15.853C22.8188 15.853 21.9047 15.3168 21.7707 15.0121C21.6366 14.7074 21.7707 14.3539 22.0753 14.2199C22.38 14.0858 22.7457 14.2199 22.8797 14.5246Z" fill="#83BF4F"/>
<path d="M23.1098 15.9177H22.793C22.793 15.3936 23.0855 14.5039 24.2555 14.5039V14.8208C23.1952 14.8208 23.1098 15.8202 23.1098 15.9177Z" fill="#947151"/>
<path d="M22.9483 15.8469C22.1068 14.9943 19.6055 14.9597 19.6055 17.4025C19.6055 18.9465 21.4267 21.1703 22.2221 21.1703C22.5795 21.1703 22.7063 20.9399 22.9253 20.9399C23.1328 20.9399 23.2019 21.1703 23.663 21.1703C24.4584 21.1703 26.2912 18.958 26.2912 17.4025C26.2912 14.9597 23.7898 14.9943 22.9483 15.8469Z" fill="#EF4D3C"/>
</g>
<g clip-path="url(#clip2_2880_38405)">
<path d="M15.7782 20.3253C15.9122 20.63 15.7172 21.6538 15.7172 21.6538C15.7172 21.6538 14.8032 21.1175 14.6691 20.8128C14.535 20.5082 14.6691 20.1547 14.9738 20.0207C15.2785 19.8866 15.6441 20.0207 15.7782 20.3253Z" fill="#83BF4F"/>
<path d="M16.0122 21.7184H15.6953C15.6953 21.1944 15.9878 20.3047 17.1578 20.3047V20.6216C16.0975 20.6216 16.0122 21.6209 16.0122 21.7184Z" fill="#947151"/>
<path d="M15.8507 21.6477C15.0092 20.7951 12.5078 20.7605 12.5078 23.2033C12.5078 24.7473 14.3291 26.9711 15.1245 26.9711C15.4818 26.9711 15.6086 26.7406 15.8276 26.7406C16.0351 26.7406 16.1043 26.9711 16.5653 26.9711C17.3607 26.9711 19.1935 24.7588 19.1935 23.2033C19.1935 20.7605 16.6921 20.7951 15.8507 21.6477Z" fill="#EF4D3C"/>
</g>
<defs>
<clipPath id="clip0_2880_38405">
<rect width="7.8" height="7.8" fill="white" transform="translate(10.3516 10.0508)"/>
</clipPath>
<clipPath id="clip1_2880_38405">
<rect width="7.8" height="7.8" fill="white" transform="translate(19.0508 13.6523)"/>
</clipPath>
<clipPath id="clip2_2880_38405">
<rect width="7.8" height="7.8" fill="white" transform="translate(11.9531 19.4492)"/>
</clipPath>
</defs>
</svg>
