<svg width="71" height="20" viewBox="0 0 71 20" fill="none" xmlns="http://www.w3.org/2000/svg">
<path d="M15.8694 16.5179C14.9895 16.5179 14.1627 16.3511 13.3888 16.0175C12.6149 15.6839 11.9417 15.2315 11.3693 14.6604C10.7968 14.0893 10.3437 13.4172 10.01 12.6441C9.67629 11.8711 9.50921 11.0455 9.50879 10.1675C9.50879 9.31019 9.68646 8.47681 10.0418 7.66734C10.3972 6.85788 10.8901 6.146 11.5207 5.53171C12.1512 4.91741 12.9011 4.45171 13.7704 4.13462C14.6397 3.81752 15.5938 3.72227 16.6327 3.84885C16.7917 3.87002 16.9136 3.93627 16.9984 4.04762C17.0833 4.15896 17.131 4.30968 17.1416 4.49977C17.1628 5.17714 17.4146 5.75672 17.8972 6.2385C18.3798 6.72029 18.9548 6.97155 19.6222 6.9923C19.8448 7.00288 20.0145 7.06638 20.1311 7.18281C20.2477 7.29923 20.3113 7.47916 20.3219 7.72259C20.3431 8.16712 20.4784 8.53227 20.7277 8.81804C20.977 9.1038 21.3241 9.32077 21.7689 9.46895C21.9173 9.52187 22.0314 9.59871 22.1111 9.69947C22.1909 9.80023 22.2305 9.92449 22.2301 10.0722C22.2513 10.9507 22.0976 11.7816 21.7689 12.5648C21.4403 13.348 20.9897 14.0334 20.4173 14.621C19.8448 15.2087 19.1664 15.6716 18.3819 16.0099C17.5974 16.3481 16.7599 16.5175 15.8694 16.5179ZM14.9153 8.89742C15.1804 8.89742 15.4057 8.80491 15.5915 8.6199C15.7772 8.43489 15.8699 8.20988 15.8694 7.94486C15.869 7.67983 15.7764 7.45503 15.5915 7.27044C15.4066 7.08586 15.1812 6.99314 14.9153 6.9923C14.6495 6.99145 14.4243 7.08417 14.2398 7.27044C14.0554 7.45672 13.9625 7.68153 13.9612 7.94486C13.96 8.20819 14.0528 8.4332 14.2398 8.6199C14.4268 8.8066 14.652 8.89911 14.9153 8.89742ZM13.6432 12.0726C13.9082 12.0726 14.1336 11.9801 14.3193 11.7951C14.5051 11.6101 14.5977 11.3851 14.5973 11.1201C14.5969 10.855 14.5042 10.6302 14.3193 10.4456C14.1345 10.2611 13.9091 10.1683 13.6432 10.1675C13.3773 10.1666 13.1522 10.2594 12.9677 10.4456C12.7832 10.6319 12.6904 10.8567 12.6891 11.1201C12.6878 11.3834 12.7807 11.6084 12.9677 11.7951C13.1547 11.9818 13.3799 12.0743 13.6432 12.0726ZM17.7776 12.7077C17.9578 12.7077 18.109 12.6467 18.2311 12.5248C18.3533 12.4028 18.4141 12.2521 18.4137 12.0726C18.4133 11.8931 18.3522 11.7424 18.2305 11.6205C18.1088 11.4985 17.9578 11.4376 17.7776 11.4376C17.5974 11.4376 17.4464 11.4985 17.3247 11.6205C17.203 11.7424 17.142 11.8931 17.1416 12.0726C17.1411 12.2521 17.2022 12.403 17.3247 12.5254C17.4473 12.6477 17.5983 12.7085 17.7776 12.7077Z" fill="#111111"/>
<path d="M28.0001 3.42076C31.4321 3.42076 34.2501 6.21094 34.2501 9.67076C34.2501 13.1027 31.4321 15.9208 28.0001 15.9208C24.5403 15.9208 21.7501 13.1027 21.7501 9.67076C21.7501 6.21094 24.5403 3.42076 28.0001 3.42076ZM28.0001 14.1071C30.4555 14.1071 32.4644 12.0982 32.4644 9.64286C32.4644 7.2154 30.4555 5.20647 28.0001 5.20647C25.5169 5.20647 23.5359 7.1875 23.5359 9.64286C23.5359 12.1261 25.5169 14.1071 28.0001 14.1071ZM43.047 14.4978C43.326 14.9163 43.2144 15.4743 42.8238 15.7533C42.6564 15.865 42.489 15.9208 42.3216 15.9208C42.0146 15.9208 41.7356 15.7812 41.5682 15.5301L37.8573 10.1451L36.0716 11.9587V15C36.0716 15.5022 35.653 15.8929 35.1787 15.8929C34.6765 15.8929 34.2859 15.5022 34.2859 15V4.28571C34.2859 3.81138 34.6765 3.42076 35.1787 3.42076C35.653 3.42076 36.0716 3.81138 36.0716 4.31362V9.41964L41.6798 3.67188C42.0146 3.30915 42.5727 3.30915 42.9354 3.67188C43.2702 4.0067 43.2981 4.56473 42.9354 4.92746L39.1129 8.83371L43.047 14.4978ZM52.1787 15C52.1787 15.5022 51.7602 15.8929 51.2859 15.8929H44.143C43.6408 15.8929 43.2501 15.5022 43.2501 15V4.28571C43.2501 3.81138 43.6408 3.42076 44.143 3.42076H51.2859C51.7602 3.42076 52.1787 3.81138 52.1787 4.31362C52.1787 4.78795 51.7602 5.20647 51.2859 5.20647H45.0359V8.7779H49.5001C49.9745 8.7779 50.393 9.16853 50.393 9.64286C50.393 10.1451 49.9745 10.5636 49.5001 10.5636H45.0359V14.135H51.2859C51.7602 14.1071 52.1787 14.5257 52.1787 15ZM61.143 15C61.143 15.5022 60.7245 15.8929 60.2501 15.8929H53.1073C52.6051 15.8929 52.2144 15.5022 52.2144 15V4.28571C52.2144 3.81138 52.6051 3.42076 53.1073 3.42076H60.2501C60.7245 3.42076 61.143 3.81138 61.143 4.31362C61.143 4.78795 60.7245 5.20647 60.2501 5.20647H54.0001V8.7779H58.4644C58.9388 8.7779 59.3573 9.16853 59.3573 9.64286C59.3573 10.1451 58.9388 10.5636 58.4644 10.5636H54.0001V14.135H60.2501C60.7245 14.1071 61.143 14.5257 61.143 15ZM65.643 3.42076C68.0984 3.42076 70.1073 5.45759 70.1073 7.88504C70.1073 10.3404 68.0984 12.3493 65.643 12.3493H62.9644V15.0279C62.9644 15.5022 62.5459 15.9208 62.0716 15.9208C61.5693 15.9208 61.1787 15.5022 61.1787 15.0279V4.31362C61.1787 3.81138 61.5693 3.42076 62.0716 3.42076H65.643ZM65.643 10.5357C67.0939 10.5357 68.3216 9.33594 68.3216 7.88504C68.3216 6.40625 67.0939 5.20647 65.643 5.20647H62.9644V10.5357H65.643Z" fill="#111111"/>
<path d="M9.96429 12.5446C10.5781 12.5446 10.8292 13.1027 10.8292 13.4375C10.8292 14.0792 8.95982 15.9208 6.22545 15.9208C2.4029 15.9208 0.114955 12.6283 0.114955 9.67076C0.114955 6.76897 2.3471 3.42076 6.22545 3.42076C9.01562 3.42076 10.8292 5.29018 10.8292 5.90402C10.8292 6.23884 10.5502 6.79688 9.93638 6.79688C9.04353 6.79688 8.6529 5.20647 6.22545 5.20647C3.49107 5.20647 1.90067 7.57813 1.90067 9.67076C1.90067 11.7355 3.46317 14.135 6.22545 14.135C8.6808 14.1071 9.07143 12.5446 9.96429 12.5446Z" fill="#111111"/>
</svg>
