<svg width="72" height="96" viewBox="0 0 72 96" fill="none" xmlns="http://www.w3.org/2000/svg">
<ellipse cx="34.3899" cy="89.7979" rx="31.093" ry="4.01763" fill="#363636"/>
<path d="M16.0255 9.39113C18.6819 8.6992 21.5044 9.09086 23.872 10.4799C26.2396 11.869 27.9585 14.1418 28.6504 16.7982C27.9585 14.1418 28.3501 11.3193 29.7392 8.95166C31.1283 6.58404 33.401 4.86519 36.0574 4.17326C38.7138 3.48133 41.5363 3.87299 43.9039 5.26207C46.2715 6.65116 47.9904 8.92389 48.6823 11.5803L49.2041 13.5835L9.14029 24.0192L8.61851 22.016C7.92657 19.3596 8.31823 16.5372 9.70732 14.1695C11.0964 11.8019 13.3691 10.0831 16.0255 9.39113ZM29.1722 18.8013C36.0788 17.0023 43.4172 18.0206 49.5731 21.6322C55.7289 25.2439 60.1979 31.153 61.9969 38.0596C63.7959 44.9662 62.7776 52.3046 59.166 58.4605C55.5544 64.6163 49.6453 69.0853 42.7387 70.8843C35.832 72.6833 28.4936 71.665 22.3378 68.0534C16.182 64.4418 11.713 58.5327 9.91395 51.6261C8.11493 44.7194 9.13324 37.381 12.7449 31.2252C16.3565 25.0694 22.2656 20.6004 29.1722 18.8013Z" fill="#32E389"/>
<path d="M10.2615 75.453C8.90391 74.487 8.21196 73.3225 7.81719 71.8452C7.42241 70.3679 7.94212 69.1151 8.74136 67.9919C9.15876 67.4054 9.76344 66.9445 10.4596 66.5825C14.1416 64.6675 18.6918 67.7358 18.543 71.8833C18.5083 72.852 18.2998 73.7537 17.8086 74.444C17.0094 75.5672 15.9961 76.4688 14.471 76.5799C12.9459 76.6911 11.619 76.419 10.2615 75.453Z" fill="#32E389"/>
<path d="M43.4459 83.7859C43.4459 89.764 38.5996 89.099 32.6215 89.099C26.6433 89.099 20.6055 90.2109 20.6055 84.2327C20.6055 78.2546 29.1756 75.3447 35.1537 75.3447C41.1319 75.3447 43.4459 77.8077 43.4459 83.7859Z" fill="#32E389"/>
<path d="M47.3067 78.8056C46.4385 84.7204 51.33 84.7662 57.2448 85.6344C63.1595 86.5026 68.9719 88.4795 69.8401 82.5648C70.7083 76.65 62.6516 72.5264 56.7369 71.6582C50.8221 70.79 48.1749 72.8909 47.3067 78.8056Z" fill="#32E389"/>
<g clip-path="url(#clip0_1432_29566)">
<circle cx="26.4686" cy="35.6117" r="5.44228" transform="rotate(-1.23604 26.4686 35.6117)" fill="white"/>
<circle cx="24.9523" cy="35.6446" r="3.91756" transform="rotate(-1.23604 24.9523 35.6446)" fill="#202020"/>
</g>
<g clip-path="url(#clip1_1432_29566)">
<circle cx="39.7147" cy="31.643" r="5.44228" transform="rotate(-1.23604 39.7147 31.643)" fill="white"/>
<circle cx="38.1965" cy="31.6759" r="3.91756" transform="rotate(-1.23604 38.1965 31.6759)" fill="#202020"/>
</g>
<line x1="31.7726" y1="42.4545" x2="39.357" y2="42.4545" stroke="#202020" stroke-width="1.26" stroke-linecap="round"/>
<defs>
<clipPath id="clip0_1432_29566">
<rect width="10.8846" height="10.8846" fill="white" transform="translate(20.9102 30.2876) rotate(-1.23604)"/>
</clipPath>
<clipPath id="clip1_1432_29566">
<rect width="10.8846" height="10.8846" fill="white" transform="translate(34.1562 26.3188) rotate(-1.23604)"/>
</clipPath>
</defs>
</svg>
