<svg width="361" height="153" viewBox="0 0 361 153" fill="none" xmlns="http://www.w3.org/2000/svg">
<g clip-path="url(#clip0_3415_40227)">
<mask id="mask0_3415_40227" style="mask-type:luminance" maskUnits="userSpaceOnUse" x="0" y="0" width="361" height="153">
<path d="M0 9.60001C0 6.23969 0 4.55953 0.653961 3.27606C1.2292 2.14708 2.14708 1.2292 3.27606 0.653961C4.55953 0 6.23969 0 9.6 0H351.4C354.76 0 356.44 0 357.724 0.653961C358.853 1.2292 359.771 2.14708 360.346 3.27606C361 4.55953 361 6.23969 361 9.6V153H0V9.60001Z" fill="white"/>
</mask>
<g mask="url(#mask0_3415_40227)">
<path d="M0 9.60001C0 6.23969 0 4.55953 0.653961 3.27606C1.2292 2.14708 2.14708 1.2292 3.27606 0.653961C4.55953 0 6.23969 0 9.6 0H351.4C354.76 0 356.44 0 357.724 0.653961C358.853 1.2292 359.771 2.14708 360.346 3.27606C361 4.55953 361 6.23969 361 9.6V153H0V9.60001Z" fill="#EBEBEB"/>
<mask id="mask1_3415_40227" style="mask-type:luminance" maskUnits="userSpaceOnUse" x="0" y="-3" width="361" height="160">
<path d="M355 -3H6C2.68629 -3 0 -0.313709 0 3V151C0 154.314 2.68629 157 6 157H355C358.314 157 361 154.314 361 151V3C361 -0.313709 358.314 -3 355 -3Z" fill="white"/>
</mask>
<g mask="url(#mask1_3415_40227)">
<path d="M355 -3H6C2.68629 -3 0 -0.313709 0 3V151C0 154.314 2.68629 157 6 157H355C358.314 157 361 154.314 361 151V3C361 -0.313709 358.314 -3 355 -3Z" fill="#E6FBEB"/>
<g opacity="0.5">
<path d="M165.027 127.549C171.167 127.549 176.144 123.567 176.144 118.655C176.144 113.743 171.167 109.762 165.027 109.762C158.887 109.762 153.91 113.743 153.91 118.655C153.91 123.567 158.887 127.549 165.027 127.549Z" fill="url(#paint0_linear_3415_40227)"/>
<path d="M196.246 127.549C202.385 127.549 207.363 123.567 207.363 118.655C207.363 113.743 202.385 109.762 196.246 109.762C190.106 109.762 185.129 113.743 185.129 118.655C185.129 123.567 190.106 127.549 196.246 127.549Z" fill="url(#paint1_linear_3415_40227)"/>
<path d="M180.674 55.6758C184.191 55.6758 187.581 56.1924 190.764 57.1484C190.204 58.0864 189.882 59.1829 189.882 60.3545C189.882 63.0386 191.571 65.3271 193.943 66.2188C193.879 66.5791 193.844 66.9502 193.844 67.3291C193.844 70.7887 196.649 73.5937 200.108 73.5938C200.976 73.5937 201.803 73.4168 202.555 73.0977C203.684 74.7406 205.575 75.8183 207.72 75.8184C209.035 75.8183 210.256 75.4118 211.264 74.7188C213.002 78.5352 213.966 82.7411 213.966 87.1602C213.966 104.548 199.06 118.645 180.674 118.645C162.288 118.644 147.383 104.548 147.383 87.1602C147.383 69.772 162.288 55.676 180.674 55.6758Z" fill="url(#paint2_linear_3415_40227)"/>
<path d="M187.989 94.0364C192.973 94.0364 197.013 89.9962 197.013 85.0123C197.013 80.0285 192.973 75.9883 187.989 75.9883C183.005 75.9883 178.965 80.0285 178.965 85.0123C178.965 89.9962 183.005 94.0364 187.989 94.0364Z" fill="white"/>
<mask id="mask2_3415_40227" style="mask-type:alpha" maskUnits="userSpaceOnUse" x="178" y="75" width="20" height="20">
<path d="M187.989 94.0364C192.973 94.0364 197.013 89.9962 197.013 85.0123C197.013 80.0285 192.973 75.9883 187.989 75.9883C183.005 75.9883 178.965 80.0285 178.965 85.0123C178.965 89.9962 183.005 94.0364 187.989 94.0364Z" fill="#D9D9D9"/>
</mask>
<g mask="url(#mask2_3415_40227)">
<path d="M191.882 89.589C194.976 89.589 197.484 87.0813 197.484 83.9878C197.484 80.8944 194.976 78.3867 191.882 78.3867C188.789 78.3867 186.281 80.8944 186.281 83.9878C186.281 87.0813 188.789 89.589 191.882 89.589Z" fill="#202020"/>
<path d="M191.882 89.589C194.976 89.589 197.484 87.0813 197.484 83.9878C197.484 80.8944 194.976 78.3867 191.882 78.3867C188.789 78.3867 186.281 80.8944 186.281 83.9878C186.281 87.0813 188.789 89.589 191.882 89.589Z" fill="black" fill-opacity="0.2"/>
</g>
<path d="M172.895 94.0364C177.879 94.0364 181.919 89.9962 181.919 85.0123C181.919 80.0285 177.879 75.9883 172.895 75.9883C167.911 75.9883 163.871 80.0285 163.871 85.0123C163.871 89.9962 167.911 94.0364 172.895 94.0364Z" fill="white"/>
<mask id="mask3_3415_40227" style="mask-type:alpha" maskUnits="userSpaceOnUse" x="163" y="75" width="19" height="20">
<path d="M172.895 94.0364C177.879 94.0364 181.919 89.9962 181.919 85.0123C181.919 80.0285 177.879 75.9883 172.895 75.9883C167.911 75.9883 163.871 80.0285 163.871 85.0123C163.871 89.9962 167.911 94.0364 172.895 94.0364Z" fill="#D9D9D9"/>
</mask>
<g mask="url(#mask3_3415_40227)">
<path d="M176.785 89.589C179.878 89.589 182.386 87.0813 182.386 83.9878C182.386 80.8944 179.878 78.3867 176.785 78.3867C173.691 78.3867 171.184 80.8944 171.184 83.9878C171.184 87.0813 173.691 89.589 176.785 89.589Z" fill="#202020"/>
<path d="M176.785 89.589C179.878 89.589 182.386 87.0813 182.386 83.9878C182.386 80.8944 179.878 78.3867 176.785 78.3867C173.691 78.3867 171.184 80.8944 171.184 83.9878C171.184 87.0813 173.691 89.589 176.785 89.589Z" fill="black" fill-opacity="0.2"/>
</g>
<path d="M172.07 96.7695C173.202 102.39 179.222 104.732 183.051 100.152" stroke="#202020" stroke-width="2.178" stroke-linecap="round"/>
<path d="M172.07 96.7695C173.202 102.39 179.222 104.732 183.051 100.152" stroke="black" stroke-opacity="0.2" stroke-width="2.178" stroke-linecap="round"/>
<path d="M165.637 71.6878C166.959 68.2884 172.154 66.282 175.523 69.1616" stroke="#202020" stroke-width="2.178" stroke-linecap="round"/>
<path d="M165.637 71.6878C166.959 68.2884 172.154 66.282 175.523 69.1616" stroke="black" stroke-opacity="0.2" stroke-width="2.178" stroke-linecap="round"/>
<path d="M151.08 104.365C149.39 100.183 145.317 97.8844 141.983 99.2318C138.649 100.579 137.316 105.062 139.006 109.244C140.696 113.426 144.769 115.724 148.103 114.377C151.437 113.03 152.77 108.547 151.08 104.365Z" fill="#1FC16F"/>
<path d="M210.557 104.365C212.247 100.183 216.32 97.8844 219.654 99.2317C222.988 100.579 224.321 105.062 222.63 109.244C220.94 113.426 216.868 115.724 213.533 114.377C210.199 113.03 208.867 108.547 210.557 104.365Z" fill="#1FC16F"/>
<mask id="mask4_3415_40227" style="mask-type:luminance" maskUnits="userSpaceOnUse" x="116" y="-6" width="52" height="52">
<path d="M153.433 -5.21231L116.883 9.27344L131.369 45.8233L167.918 31.3376L153.433 -5.21231Z" fill="white"/>
</mask>
<g mask="url(#mask4_3415_40227)">
<path d="M132.601 13.8603C132.398 10.9451 134.26 8.14544 137.174 6.99048C140.088 5.83551 143.363 6.59938 145.212 8.86206C145.94 8.15073 146.784 7.58734 147.739 7.20887C149.485 6.51663 151.415 6.49454 153.102 7.14746C154.79 7.80037 156.098 9.07481 156.738 10.6904C157.837 13.4621 156.755 16.6926 154.135 18.5416L158.001 28.2955C158.243 28.9055 157.944 29.5959 157.334 29.8377L138.139 37.4451C137.53 37.6868 136.839 37.3883 136.597 36.7783L132.732 27.0244C131.185 27.244 129.633 26.977 128.317 26.2649C127.001 25.5528 125.995 24.4358 125.456 23.0883C124.816 21.4727 124.896 19.6483 125.678 18.0164C126.461 16.3845 127.881 15.0788 129.628 14.3866C130.583 14.0081 131.583 13.8407 132.601 13.8603Z" fill="#C3C3C3"/>
</g>
<path d="M143.61 188.917C157.006 188.917 167.865 180.23 167.865 169.513C167.865 158.797 157.006 150.109 143.61 150.109C130.215 150.109 119.355 158.797 119.355 169.513C119.355 180.23 130.215 188.917 143.61 188.917Z" fill="url(#paint3_linear_3415_40227)"/>
<path d="M211.724 188.917C225.119 188.917 235.979 180.23 235.979 169.513C235.979 158.797 225.119 150.109 211.724 150.109C198.328 150.109 187.469 158.797 187.469 169.513C187.469 180.23 198.328 188.917 211.724 188.917Z" fill="url(#paint4_linear_3415_40227)"/>
<path d="M177.738 32.1055C185.413 32.1055 192.81 33.2321 199.754 35.3184C198.534 37.3638 197.833 39.7548 197.833 42.3096C197.833 48.1682 201.52 53.1646 206.699 55.1084C206.558 55.8962 206.484 56.7077 206.484 57.5361C206.485 65.0842 212.604 71.2031 220.152 71.2031C222.047 71.203 223.852 70.8164 225.493 70.1191C227.957 73.6998 232.084 76.0478 236.76 76.0479C239.626 76.0478 242.285 75.1641 244.482 73.6562C248.273 81.9821 250.375 91.1577 250.375 100.798C250.375 138.736 217.854 169.491 177.738 169.491C137.622 169.491 105.102 138.736 105.102 100.798C105.102 62.86 137.622 32.1055 177.738 32.1055Z" fill="url(#paint5_linear_3415_40227)"/>
<path d="M193.556 114.428C204.43 114.428 213.245 105.613 213.245 94.7396C213.245 83.8658 204.43 75.0508 193.556 75.0508C182.682 75.0508 173.867 83.8658 173.867 94.7396C173.867 105.613 182.682 114.428 193.556 114.428Z" fill="white"/>
<mask id="mask5_3415_40227" style="mask-type:alpha" maskUnits="userSpaceOnUse" x="173" y="75" width="41" height="40">
<path d="M193.556 114.428C204.43 114.428 213.245 105.613 213.245 94.7396C213.245 83.8658 204.43 75.0508 193.556 75.0508C182.682 75.0508 173.867 83.8658 173.867 94.7396C173.867 105.613 182.682 114.428 193.556 114.428Z" fill="#D9D9D9"/>
</mask>
<g mask="url(#mask5_3415_40227)">
<path d="M199.271 113.238C206.021 113.238 211.492 107.767 211.492 101.017C211.492 94.2682 206.021 88.7969 199.271 88.7969C192.522 88.7969 187.051 94.2682 187.051 101.017C187.051 107.767 192.522 113.238 199.271 113.238Z" fill="#202020"/>
<path d="M199.271 113.238C206.021 113.238 211.492 107.767 211.492 101.017C211.492 94.2682 206.021 88.7969 199.271 88.7969C192.522 88.7969 187.051 94.2682 187.051 101.017C187.051 107.767 192.522 113.238 199.271 113.238Z" fill="black" fill-opacity="0.2"/>
</g>
<path d="M160.626 114.428C171.5 114.428 180.315 105.613 180.315 94.7396C180.315 83.8658 171.5 75.0508 160.626 75.0508C149.752 75.0508 140.938 83.8658 140.938 94.7396C140.938 105.613 149.752 114.428 160.626 114.428Z" fill="white"/>
<mask id="mask6_3415_40227" style="mask-type:alpha" maskUnits="userSpaceOnUse" x="140" y="75" width="41" height="40">
<path d="M160.626 114.428C171.5 114.428 180.315 105.613 180.315 94.7396C180.315 83.8658 171.5 75.0508 160.626 75.0508C149.752 75.0508 140.938 83.8658 140.938 94.7396C140.938 105.613 149.752 114.428 160.626 114.428Z" fill="#D9D9D9"/>
</mask>
<g mask="url(#mask6_3415_40227)">
<path d="M166.342 113.238C173.091 113.238 178.562 107.767 178.562 101.017C178.562 94.2682 173.091 88.7969 166.342 88.7969C159.592 88.7969 154.121 94.2682 154.121 101.017C154.121 107.767 159.592 113.238 166.342 113.238Z" fill="#202020"/>
<path d="M166.342 113.238C173.091 113.238 178.562 107.767 178.562 101.017C178.562 94.2682 173.091 88.7969 166.342 88.7969C159.592 88.7969 154.121 94.2682 154.121 101.017C154.121 107.767 159.592 113.238 166.342 113.238Z" fill="black" fill-opacity="0.2"/>
</g>
<path d="M158.953 120.312C161.422 132.575 174.558 137.685 182.911 127.694" stroke="#202020" stroke-width="4.752" stroke-linecap="round"/>
<path d="M158.953 120.312C161.422 132.575 174.558 137.685 182.911 127.694" stroke="black" stroke-opacity="0.2" stroke-width="4.752" stroke-linecap="round"/>
<path d="M141.781 63.7617C144.664 56.3447 155.998 51.9672 163.348 58.2498" stroke="#202020" stroke-width="4.752" stroke-linecap="round"/>
<path d="M141.781 63.7617C144.664 56.3447 155.998 51.9672 163.348 58.2498" stroke="black" stroke-opacity="0.2" stroke-width="4.752" stroke-linecap="round"/>
<mask id="mask7_3415_40227" style="mask-type:luminance" maskUnits="userSpaceOnUse" x="213" y="95" width="75" height="75">
<path d="M271.063 95.5602L213.602 111.863L229.905 169.325L287.366 153.022L271.063 95.5602Z" fill="white"/>
</mask>
<g mask="url(#mask7_3415_40227)">
<path d="M265.246 110.144C267.688 109.451 270.228 110.87 270.92 113.31L272.383 118.467C273.649 122.924 273.502 127.663 271.962 132.033C270.422 136.402 267.564 140.187 263.784 142.865L264.471 145.288C264.741 146.24 264.622 147.261 264.14 148.126C263.657 148.99 262.851 149.628 261.899 149.898L249.927 153.295C248.975 153.565 247.954 153.446 247.09 152.963C246.225 152.481 245.587 151.675 245.317 150.722L244.63 148.299C240.006 148.006 235.587 146.286 231.982 143.376C228.376 140.466 225.762 136.51 224.498 132.053L223.035 126.895C222.342 124.453 223.761 121.914 226.201 121.222L265.246 110.144Z" fill="white"/>
</g>
<path d="M248.75 139.081C255.803 132.217 265.957 131.212 271.429 136.835C276.9 142.458 275.618 152.58 268.564 159.444C261.511 166.307 251.357 167.313 245.886 161.69C240.414 156.067 241.696 145.944 248.75 139.081Z" fill="#1FC16F"/>
<path d="M113.006 120.354C112.073 118.874 111.726 117.16 111.936 115.516C112.713 109.412 120.795 104.253 128.101 105.183C132.135 105.697 134.991 109.386 134.478 113.42C133.547 120.727 126.528 127.258 120.424 126.481C118.78 126.272 117.207 125.507 116.008 124.233L95.7234 139.942C94.6509 140.772 93.1059 140.576 92.2756 139.503C91.4454 138.431 91.6421 136.886 92.7146 136.055L113.006 120.354Z" fill="#ECC581"/>
<path d="M107.731 132.588C104.186 123.406 95.3792 118.255 88.0599 121.081C80.7407 123.907 77.681 133.64 81.2259 142.821C84.7708 152.003 93.5779 157.154 100.897 154.328C108.216 151.502 111.276 141.769 107.731 132.588Z" fill="#1FC16F"/>
</g>
</g>
</g>
</g>
<defs>
<linearGradient id="paint0_linear_3415_40227" x1="165.027" y1="109.762" x2="165.027" y2="127.549" gradientUnits="userSpaceOnUse">
<stop offset="0.5" stop-color="#202020"/>
<stop offset="1" stop-color="#474747"/>
</linearGradient>
<linearGradient id="paint1_linear_3415_40227" x1="196.246" y1="109.762" x2="196.246" y2="127.549" gradientUnits="userSpaceOnUse">
<stop offset="0.5" stop-color="#202020"/>
<stop offset="1" stop-color="#474747"/>
</linearGradient>
<linearGradient id="paint2_linear_3415_40227" x1="180.674" y1="55.6758" x2="180.674" y2="118.645" gradientUnits="userSpaceOnUse">
<stop stop-color="#32E389"/>
<stop offset="1" stop-color="#1FC16F"/>
</linearGradient>
<linearGradient id="paint3_linear_3415_40227" x1="143.61" y1="150.109" x2="143.61" y2="188.917" gradientUnits="userSpaceOnUse">
<stop offset="0.5" stop-color="#202020"/>
<stop offset="1" stop-color="#474747"/>
</linearGradient>
<linearGradient id="paint4_linear_3415_40227" x1="211.724" y1="150.109" x2="211.724" y2="188.917" gradientUnits="userSpaceOnUse">
<stop offset="0.5" stop-color="#202020"/>
<stop offset="1" stop-color="#474747"/>
</linearGradient>
<linearGradient id="paint5_linear_3415_40227" x1="177.738" y1="32.1055" x2="177.738" y2="169.491" gradientUnits="userSpaceOnUse">
<stop stop-color="#32E389"/>
<stop offset="1" stop-color="#1FC16F"/>
</linearGradient>
<clipPath id="clip0_3415_40227">
<rect width="361" height="153" fill="white"/>
</clipPath>
</defs>
</svg>
