<svg width="373" height="165" viewBox="0 0 373 165" fill="none" xmlns="http://www.w3.org/2000/svg">
<g filter="url(#filter0_d_2336_47674)">
<g clip-path="url(#clip0_2336_47674)">
<path d="M6 11.6C6 8.23969 6 6.55953 6.65396 5.27606C7.2292 4.14708 8.14708 3.2292 9.27606 2.65396C10.5595 2 12.2397 2 15.6 2H357.4C360.76 2 362.44 2 363.724 2.65396C364.853 3.2292 365.771 4.14708 366.346 5.27606C367 6.55953 367 8.23969 367 11.6V155H6V11.6Z" fill="#EBEBEB"/>
<g clip-path="url(#clip1_2336_47674)">
<rect x="6" y="-1" width="361" height="160" rx="6" fill="#E6FBEB"/>
<g opacity="0.5">
<ellipse cx="171.027" cy="120.655" rx="11.1169" ry="8.8935" fill="url(#paint0_linear_2336_47674)"/>
<ellipse cx="202.246" cy="120.655" rx="11.1169" ry="8.8935" fill="url(#paint1_linear_2336_47674)"/>
<path d="M186.674 57.6758C190.191 57.6758 193.581 58.1924 196.764 59.1484C196.204 60.0864 195.882 61.1829 195.882 62.3545C195.882 65.0386 197.571 67.3271 199.943 68.2188C199.879 68.5791 199.844 68.9502 199.844 69.3291C199.844 72.7887 202.649 75.5937 206.108 75.5938C206.976 75.5937 207.803 75.4168 208.555 75.0977C209.684 76.7406 211.575 77.8183 213.72 77.8184C215.035 77.8183 216.256 77.4118 217.264 76.7188C219.002 80.5352 219.966 84.7411 219.966 89.1602C219.966 106.548 205.06 120.645 186.674 120.645C168.288 120.644 153.383 106.548 153.383 89.1602C153.383 71.772 168.288 57.676 186.674 57.6758Z" fill="url(#paint2_linear_2336_47674)"/>
<circle cx="193.989" cy="87.0123" r="9.02404" fill="white"/>
<mask id="mask0_2336_47674" style="mask-type:alpha" maskUnits="userSpaceOnUse" x="184" y="77" width="20" height="20">
<circle cx="193.989" cy="87.0123" r="9.02404" fill="#D9D9D9"/>
</mask>
<g mask="url(#mask0_2336_47674)">
<circle cx="197.882" cy="85.9878" r="5.60113" fill="#202020"/>
<circle cx="197.882" cy="85.9878" r="5.60113" fill="black" fill-opacity="0.2"/>
</g>
<circle cx="178.895" cy="87.0123" r="9.02404" fill="white"/>
<mask id="mask1_2336_47674" style="mask-type:alpha" maskUnits="userSpaceOnUse" x="169" y="77" width="19" height="20">
<circle cx="178.895" cy="87.0123" r="9.02404" fill="#D9D9D9"/>
</mask>
<g mask="url(#mask1_2336_47674)">
<circle cx="182.785" cy="85.9878" r="5.60113" fill="#202020"/>
<circle cx="182.785" cy="85.9878" r="5.60113" fill="black" fill-opacity="0.2"/>
</g>
<path d="M178.07 98.7695C179.202 104.39 185.222 106.732 189.051 102.152" stroke="#202020" stroke-width="2.178" stroke-linecap="round"/>
<path d="M178.07 98.7695C179.202 104.39 185.222 106.732 189.051 102.152" stroke="black" stroke-opacity="0.2" stroke-width="2.178" stroke-linecap="round"/>
<path d="M171.636 73.6846C172.958 70.2852 178.153 68.2788 181.522 71.1584" stroke="#202020" stroke-width="2.178" stroke-linecap="round"/>
<path d="M171.636 73.6846C172.958 70.2852 178.153 68.2788 181.522 71.1584" stroke="black" stroke-opacity="0.2" stroke-width="2.178" stroke-linecap="round"/>
<ellipse cx="151.043" cy="108.804" rx="8.1675" ry="6.51115" transform="rotate(-112.004 151.043 108.804)" fill="#1FC16F"/>
<ellipse cx="8.1675" cy="6.51115" rx="8.1675" ry="6.51115" transform="matrix(0.374673 -0.927157 -0.927157 -0.374673 225.57 118.816)" fill="#1FC16F"/>
<g clip-path="url(#clip2_2336_47674)">
<path d="M138.603 15.8584C138.4 12.9432 140.262 10.1435 143.176 8.98853C146.09 7.83356 149.365 8.59743 151.214 10.8601C151.942 10.1488 152.785 9.58539 153.74 9.20692C155.487 8.51468 157.416 8.49259 159.104 9.14551C160.792 9.79842 162.1 11.0729 162.74 12.6885C163.839 15.4602 162.757 18.6907 160.137 20.5397L164.003 30.2936C164.244 30.9036 163.946 31.594 163.336 31.8358L144.141 39.4432C143.531 39.6849 142.841 39.3864 142.599 38.7764L138.733 29.0225C137.187 29.2421 135.635 28.9751 134.319 28.263C133.003 27.5509 131.997 26.4339 131.458 25.0864C130.818 23.4708 130.898 21.6464 131.68 20.0145C132.462 18.3826 133.883 17.0769 135.63 16.3847C136.585 16.0062 137.585 15.8388 138.603 15.8584Z" fill="#C3C3C3"/>
</g>
<ellipse cx="149.61" cy="171.513" rx="24.255" ry="19.404" fill="url(#paint3_linear_2336_47674)"/>
<ellipse cx="217.724" cy="171.513" rx="24.255" ry="19.404" fill="url(#paint4_linear_2336_47674)"/>
<path d="M183.742 34.1055C191.417 34.1055 198.814 35.2321 205.758 37.3184C204.538 39.3638 203.837 41.7548 203.837 44.3096C203.837 50.1682 207.523 55.1646 212.703 57.1084C212.562 57.8962 212.488 58.7077 212.488 59.5361C212.488 67.0842 218.608 73.2031 226.156 73.2031C228.051 73.203 229.856 72.8164 231.497 72.1191C233.961 75.6998 238.088 78.0478 242.764 78.0479C245.63 78.0478 248.289 77.1641 250.486 75.6562C254.277 83.9821 256.379 93.1577 256.379 102.798C256.379 140.736 223.858 171.491 183.742 171.491C143.626 171.491 111.105 140.736 111.105 102.798C111.106 64.86 143.626 34.1055 183.742 34.1055Z" fill="url(#paint5_linear_2336_47674)"/>
<circle cx="199.556" cy="96.7435" r="19.6888" fill="white"/>
<mask id="mask2_2336_47674" style="mask-type:alpha" maskUnits="userSpaceOnUse" x="179" y="77" width="41" height="40">
<circle cx="199.556" cy="96.7435" r="19.6888" fill="#D9D9D9"/>
</mask>
<g mask="url(#mask2_2336_47674)">
<ellipse cx="205.271" cy="103.021" rx="12.2206" ry="12.2206" fill="#202020"/>
<ellipse cx="205.271" cy="103.021" rx="12.2206" ry="12.2206" fill="black" fill-opacity="0.2"/>
</g>
<circle cx="166.626" cy="96.7435" r="19.6888" fill="white"/>
<mask id="mask3_2336_47674" style="mask-type:alpha" maskUnits="userSpaceOnUse" x="146" y="77" width="41" height="40">
<circle cx="166.626" cy="96.7435" r="19.6888" fill="#D9D9D9"/>
</mask>
<g mask="url(#mask3_2336_47674)">
<ellipse cx="172.342" cy="103.021" rx="12.2206" ry="12.2206" fill="#202020"/>
<ellipse cx="172.342" cy="103.021" rx="12.2206" ry="12.2206" fill="black" fill-opacity="0.2"/>
</g>
<path d="M164.957 122.316C167.426 134.579 180.561 139.688 188.915 129.697" stroke="#202020" stroke-width="4.752" stroke-linecap="round"/>
<path d="M164.957 122.316C167.426 134.579 180.561 139.688 188.915 129.697" stroke="black" stroke-opacity="0.2" stroke-width="4.752" stroke-linecap="round"/>
<path d="M147.781 65.7644C150.664 58.3474 161.998 53.9699 169.348 60.2525" stroke="#202020" stroke-width="4.752" stroke-linecap="round"/>
<path d="M147.781 65.7644C150.664 58.3474 161.998 53.9699 169.348 60.2525" stroke="black" stroke-opacity="0.2" stroke-width="4.752" stroke-linecap="round"/>
<g clip-path="url(#clip3_2336_47674)">
<path d="M271.246 112.145C273.688 111.452 276.228 112.871 276.92 115.31L278.383 120.468C279.649 124.924 279.502 129.664 277.962 134.034C276.422 138.403 273.564 142.188 269.784 144.866L270.471 147.289C270.741 148.241 270.622 149.262 270.14 150.127C269.657 150.991 268.851 151.629 267.899 151.899L255.927 155.295C254.975 155.566 253.954 155.446 253.09 154.964C252.225 154.482 251.587 153.676 251.317 152.723L250.63 150.3C246.006 150.007 241.587 148.287 237.982 145.377C234.376 142.467 231.762 138.511 230.498 134.054L229.035 128.896C228.342 126.454 229.761 123.915 232.201 123.223L271.246 112.145Z" fill="white"/>
</g>
<ellipse cx="17.82" cy="14.2062" rx="17.82" ry="14.2062" transform="matrix(0.716692 -0.69739 -0.69739 -0.716692 261.793 173.871)" fill="#1FC16F"/>
<path d="M119.006 122.355C118.073 120.875 117.726 119.161 117.936 117.517C118.713 111.412 126.795 106.254 134.101 107.184C138.135 107.698 140.991 111.387 140.478 115.421C139.547 122.728 132.528 129.259 126.424 128.482C124.78 128.273 123.207 127.508 122.008 126.234L101.724 141.943C100.651 142.773 99.1062 142.577 98.2759 141.504C97.4457 140.431 97.6424 138.886 98.7149 138.056L119.006 122.355Z" fill="#ECC581"/>
<ellipse cx="100.479" cy="139.708" rx="17.82" ry="14.2062" transform="rotate(-111.112 100.479 139.708)" fill="#1FC16F"/>
</g>
</g>
</g>
</g>
<defs>
<filter id="filter0_d_2336_47674" x="0" y="0" width="373" height="165" filterUnits="userSpaceOnUse" color-interpolation-filters="sRGB">
<feFlood flood-opacity="0" result="BackgroundImageFix"/>
<feColorMatrix in="SourceAlpha" type="matrix" values="0 0 0 0 0 0 0 0 0 0 0 0 0 0 0 0 0 0 127 0" result="hardAlpha"/>
<feMorphology radius="10" operator="erode" in="SourceAlpha" result="effect1_dropShadow_2336_47674"/>
<feOffset dy="4"/>
<feGaussianBlur stdDeviation="8"/>
<feComposite in2="hardAlpha" operator="out"/>
<feColorMatrix type="matrix" values="0 0 0 0 0 0 0 0 0 0 0 0 0 0 0 0 0 0 0.25 0"/>
<feBlend mode="normal" in2="BackgroundImageFix" result="effect1_dropShadow_2336_47674"/>
<feBlend mode="normal" in="SourceGraphic" in2="effect1_dropShadow_2336_47674" result="shape"/>
</filter>
<linearGradient id="paint0_linear_2336_47674" x1="171.027" y1="111.762" x2="171.027" y2="129.549" gradientUnits="userSpaceOnUse">
<stop offset="0.5" stop-color="#202020"/>
<stop offset="1" stop-color="#474747"/>
</linearGradient>
<linearGradient id="paint1_linear_2336_47674" x1="202.246" y1="111.762" x2="202.246" y2="129.549" gradientUnits="userSpaceOnUse">
<stop offset="0.5" stop-color="#202020"/>
<stop offset="1" stop-color="#474747"/>
</linearGradient>
<linearGradient id="paint2_linear_2336_47674" x1="186.674" y1="57.6758" x2="186.674" y2="120.645" gradientUnits="userSpaceOnUse">
<stop stop-color="#32E389"/>
<stop offset="1" stop-color="#1FC16F"/>
</linearGradient>
<linearGradient id="paint3_linear_2336_47674" x1="149.61" y1="152.109" x2="149.61" y2="190.917" gradientUnits="userSpaceOnUse">
<stop offset="0.5" stop-color="#202020"/>
<stop offset="1" stop-color="#474747"/>
</linearGradient>
<linearGradient id="paint4_linear_2336_47674" x1="217.724" y1="152.109" x2="217.724" y2="190.917" gradientUnits="userSpaceOnUse">
<stop offset="0.5" stop-color="#202020"/>
<stop offset="1" stop-color="#474747"/>
</linearGradient>
<linearGradient id="paint5_linear_2336_47674" x1="183.742" y1="34.1055" x2="183.742" y2="171.491" gradientUnits="userSpaceOnUse">
<stop stop-color="#32E389"/>
<stop offset="1" stop-color="#1FC16F"/>
</linearGradient>
<clipPath id="clip0_2336_47674">
<path d="M6 11.6C6 8.23969 6 6.55953 6.65396 5.27606C7.2292 4.14708 8.14708 3.2292 9.27606 2.65396C10.5595 2 12.2397 2 15.6 2H357.4C360.76 2 362.44 2 363.724 2.65396C364.853 3.2292 365.771 4.14708 366.346 5.27606C367 6.55953 367 8.23969 367 11.6V155H6V11.6Z" fill="white"/>
</clipPath>
<clipPath id="clip1_2336_47674">
<rect x="6" y="-1" width="361" height="160" rx="6" fill="white"/>
</clipPath>
<clipPath id="clip2_2336_47674">
<rect width="39.3158" height="39.3158" fill="white" transform="translate(122.887 11.2695) rotate(-21.6198)"/>
</clipPath>
<clipPath id="clip3_2336_47674">
<rect width="59.7297" height="59.7297" fill="white" transform="translate(219.602 113.867) rotate(-15.8397)"/>
</clipPath>
</defs>
</svg>
